<svg id="Layer_1" data-name="Layer 1" xmlns="http://www.w3.org/2000/svg" viewBox="0 0 1000.22 998.26"><path d="M258.74,306.93c1-2.52,3.45-2.44,5.49-2.9,11.91-2.72,23.89-5.14,35.31-9.71,4.57-1.83,8.57-3.93,10.53-9,.9-2.33,2.92-4.35,4.77-6.17a88.31,88.31,0,0,0,17.78-24.84c4.09-8.51,9.35-16.44,14.74-24.23,3-4.29,4.7-8.88,3.53-14.16-.86-3.9,2.49-6.14,3.64-9.24,2.29-6.17,5.9-11.85,8.21-18,3.72-9.95,6.94-20,6.59-31-.24-7.81.51-15.67-.43-23.48a79.3,79.3,0,0,0-4.11-17.62c-2.22-6.15-4.23-12.37-7.85-17.94-1.59-2.46-1.39-5.11.86-7.56,1.83-2,2.75-4.58.67-7-4.87-5.67-7.13-12.37-9.31-19.44-3-9.7-9.07-17.9-16.16-25.23-.76-.79-1.9-1.38-1.69-2.85,1.07-7.34-4.7-9.32-9.57-11.59-4.43-2.07-8.32-5.09-13-6.78,4.29-.14,7.67,2.57,12.07,3.68a9.11,9.11,0,0,0-3.63-4.09A132.47,132.47,0,0,0,291.59,3c-2.41-1.07-4.82-1.87-7.59-1-2.47.75-3.92-.7-4.28-3.07-.39-2.56.68-4.31,3.4-4.56,1.81-.16,3.64,0,6.59,0-2.87-1.67-4.92-1.34-6.86-1.34q-84.26,0-168.51,0H-1.48c-5.74,0-5.75,0-5.75,5.74q0,29,0,58.06c0,1.54.49,3.2-.66,4.66-1.32-1.21-.77-2.74-.78-4.08,0-20.08.09-40.17-.11-60.24,0-4.33,1.11-5.75,5.6-5.73,29.83.19,59.66.1,89.49.1h192a268.07,268.07,0,0,0-30.56-4.71c5.87-1.84,11.84-1.52,17.72-.78,6.91.87,13.73,2.47,20.64,3.38,7.1.93,14.26,2,21.39,2q318.9.16,637.78.1c8.81,0,7.92-.88,7.94,8,0,19.93,0,39.87,0,59.8v5.34c-2-2.15-1.46-4-1.46-5.61q-.06-29.89,0-59.8c0-6.23,0-6.24-6.13-6.24H305.81l-.41,1.05c26.3,10.16,51.23,22.23,67.08,47-2.38-.71-4-2.4-5.52-4.24s-3.08-3.85-4.28-5.35c-2,.69-1.7,1.31-1.49,1.78,4.75,10.19,7.92,20.94,11.48,31.56.74,2.22,1.33,4.32,4.24,4.92,2.63.54,2.65,3.21,3,5.31,2.21,12.81,4.34,25.64,6.52,38.45.14.84.29,2,.85,2.38,4,2.49,3.38,6.43,3.39,10.16,0,2.77-.17,5.49,2.17,7.67,1.08,1,1.1,2.63,1,4.12-.62,15.82-.79,31.55-5.25,47.1-2.28,7.92-3.89,16-7.2,23.66-1.23,2.83-.48,5,1.37,7.92,3.69-4.86,6.36-10,9.49-14.9.05,4.9-2.18,9-4.9,12.66-6.77,9.13-7.6,20.63-12.6,30.44a31.28,31.28,0,0,0-1.46,3.17c-.44,1.2-2.49,2.48-.59,3.66,1.47.92,2.68-.67,3.56-1.78,7.54-9.4,15-18.85,22.53-28.27,8-10,16.51-19.59,23.76-30.08,6.85-9.9,16.33-17.28,23.48-26.81a14.79,14.79,0,0,1,4.92-4.22c2.31-1.18,3.37-2.28,2.58-5-.56-2,1.11-3.55,2.43-4.86,17.56-17.47,31.76-37.79,47.81-56.56C508.28,88.54,512.44,83,517.16,78c2-2.15,1.74-3.68-1.1-4.9-1.89-.81-4.22-1.39-4.75-4.35,3-.11,4.67,2.28,6.79,3.45s3.66,1.33,5.12-.88c2.36-3.58,5.13-6.35,10-4.73a3.61,3.61,0,0,0,2.43-.67c1.13-.65,2.59-1.55,2.43-2.84-.21-1.83-2.08-1.1-3.23-1.13-4.43-.1-8.86,0-13.33-.53,1.59-2.14,3.8-2,5.83-2,20.08.06,40.15.09,60.22.4,4.71.07,8-2.44,11.39-4.79,5.62-3.87,11-8.11,16.54-12.07,2.78-2,5.29-4.54,9.35-3.84,1.56.28,2.69-1.49,3.93-2.49q10.35-8.32,20.78-16.54a6.21,6.21,0,0,1,3.92-1.72c.72,0,2,0,1.91.56-.73,5.63,3.49,2.66,5.46,3,3.9.73,6.21,2.92,5.61,6.86-.53,3.47.33,5.85,3.26,7.78,1.44,1,2.79,2.75,2.43,4.42-.88,4,1.51,6.6,3.35,9.51,5.37,8.49,11,16.76,18.21,23.86,4,4,5.15,9.68,8.08,14.33.84,1.34-2,2.05-.6,3.6.66.73.75,2.11,1.49,2.62,7.84,5.39,11,14.09,15.91,21.63,1.9,2.94,5.22,5,8.18,7.27,3.49,2.66,5.67,7.23,8,11.22,4.29,7.36,9.77,13.79,15.14,20.33a32,32,0,0,1,2.67,3.93c2.85,4.77,6.71,8.68,10.47,12.72a33.41,33.41,0,0,1,6.48,11.31c2.4,6.47,6.44,12,10,17.87a5.26,5.26,0,0,0,3.33,2.58c7.44,1.92,12.19,7.58,12.63,15.2.11,1.83.14,3.13,2.34,3.3.85.07,2,.48,2,1.41-.3,5.45,3.74,3.57,6.36,3.75,11.2.78,22.39-.69,33.64,0,8.76.55,15.28,5.81,22.85,8.79,1.75.68,2.53,2.76,2.8,4.7.62,4.61,1.41,9.22,1.67,13.85a27.78,27.78,0,0,0,12.6,22.36c11.77,8,22.41,17.65,34.9,24.66,1.09.61,2.51,1.65,2.7,2.69,1.31,6.85,7.38,8.05,12.25,10.57,3.34,1.72,7,2.81,10.41,4.41,2.15,1,4.77,1.82,3.83,5.33-.33,1.25,5.7,5.32,6.93,4.87.82-.29.93-1,.94-1.77q0-2,0-3.93,0-99.31,0-198.62c0-2.13-.45-4.33.7-6.82,1.17,2.21.74,4.23.74,6.13q0,99.75,0,199.5c0,3.2,0,5.93,3.69,7.33a4.61,4.61,0,0,1,2.93,5c-1.18,6,3.2,7.59,7.08,9.69v27.94c-2.34-2.18-4.69-4.35-7-6.54-2-1.84-4.74-3.35-2-6.72.79-1-.5-1.78-1.32-2.37q-18.19-13.15-36.41-26.29a4.44,4.44,0,0,0-2.38-1c-8.22.17-12.07-5.08-14.59-11.82a4.19,4.19,0,0,0-3.82-3,12.44,12.44,0,0,1-8.34-4.91c-3.69-4.63-8.39-8.37-11.86-13.23a8.6,8.6,0,0,0-3.56-3.15c-10-3.76-15.28-13.11-23.3-19.19-3.59-2.71-7.14-5.48-10.72-8.2-.46-.35-1-.87-1.5-.81-9.55,1.14-14.21-6.79-20.76-11.17a65.17,65.17,0,0,1-6.15-4.88c-1.32-1.14-2.09-2.63-.66-4.15s2.61-.15,3.74.71l15.6,11.76L833,258.1c-1.71-1.41-3.46-2.77-5.12-4.25s-2.71-2.88-1.77-5.63c1.12-3.31-2.59-4.11-4.3-3.91-5,.58-9.28-1.89-14-2.41-1.12-.12-2.54-.77-3.22.38s.65,2.12,1.44,2.85C810.29,249,813,254,815.61,259c.39.74,1.27,1.58.45,2.31-1.17,1-1.81-.31-2.43-1-4.88-5.18-9.84-10.3-14.54-15.64-4.92-5.6-8.18-6.4-14.85-3.33-1.8.82-2.67,1.89-1.84,3.69,2.38,5.2,2.34,10.85,2.59,16.29.38,8,3,15.38,5.19,22.9,1.86,6.43,4,12.79,5.05,19.42,1.42,8.85,6.44,16.07,10.33,23.85,7.84,15.68,20.18,28,30.29,42a39,39,0,0,1,3.69,5.92c1.71,3.61.7,7.14-2.35,8.72-3.41,1.76-6.19.62-8.45-2.19a22.87,22.87,0,0,1-1.66-2.56c-.93-1.56-1.87-2.39-3.83-1.14-4,2.55-7.54,1.05-10.64-1.88-5.77-5.45-10.12-12-14-18.86-1.61-2.87-2.38-4-5-.5a159.49,159.49,0,0,1-40.2,37.12c-.8.53-1.56,1.34-3.3.91,7-8.34,15.88-14.22,23.23-21.7s15.3-14.47,20.35-23.87c-12.78,13.68-29.55,22.12-43.89,33.69-7.81,6.31-15.8,12.39-23.75,18.51-1,.82-2.34,2.67-3.66,1.29-1.54-1.61.49-2.84,1.49-3.92,5.13-5.53,11.27-10,16.49-15.52-6,4-11.9,8-17.89,11.89-2.18,1.43-4.44,2.75-6.74,4a2.21,2.21,0,0,1-2.84-.28c-1-1.12-.35-2.27.45-3.13a32.58,32.58,0,0,1,3.55-3.19c7.15-5.69,14.5-11.15,20.82-17.91-3.2,2-6.36,4.09-9.61,6-1.33.79-3.08,1.86-4.27.08-.9-1.34.13-2.77,1.12-3.89,2.3-2.61,4.61-5.2,6.8-8.13-5,3.11-11,3.91-16.21,6.81a50.43,50.43,0,0,1-16.71,6.27c-.49-4.25,2.72-6,5.11-8.12,8.68-7.72,17.45-15.34,25.54-23.82-5.23,4.11-10.51,8.16-15.68,12.35-2.16,1.75-3.67,4.86-7.19,1.95-.85-.69-2.13.56-3.16,1.07-7,3.51-14.46,5.6-22.27,7.54L691.55,365c3.91-3,7.84-6,11.71-9.11,1-.75,2.66-1.65,1.48-3.05-1-1.25-2,.41-2.85,1-5,3.88-10,7.84-15.4,11.28,9.67-10.78,21.48-19.28,31.79-29.53-2-1.52-2.79-.05-3.75.69-7.28,5.54-14.54,11.11-21.87,16.58-1.52,1.13-3.41,3.41-5.22,1.57-1.48-1.5.43-3.42,1.49-4.95a6.89,6.89,0,0,0,.55-1.29c-2.53.38-3.65,2.52-5.47,3.53-2.46,1.38-4,5.53-8,2.64-.4-.28-2,.94-2.91,1.6-5.54,3.93-11.12,7.79-17.45,10.43,5.31-5.76,11.66-10.24,17.79-15,8.25-6.43,16.36-13.06,24.62-19.48,2.49-1.94,2.71-5,5.19-8.05l-30.62,19.85-.86-1.06c1.8-3.17,5-5,7.83-7.21,3.09-2.43,6.22-4.81,9.35-7.19s6.07-4.51,9-6.85,6.15-4.35,8.4-7.55c-18,11.12-35.53,22.85-55.11,31.12,7.8-6.23,16.62-10.94,24.32-17.44l-8.39,3.66c3.38-4.74,9-6.18,13.54-10.21-2.65-.54-5.09-1.32-2.05-4,1.58-1.42,3.37-2.64,4.15-5.11-11.68,5.58-23.17,11.48-35.33,16.11,27-15.75,53.7-32,77.92-52-5.54,2.39-10.41,6.2-16.6,7.31,18.62-11.32,36.62-23.48,53.35-37.48-13.29,8.33-26,17.63-39.65,25.33s-27.21,15.44-41.12,22.67c6.58-6.46,14.85-10.47,22-16.32L678.08,289c-.17-.36-.34-.71-.52-1.06,2.05-2,4.69-3.17,7.17-4.52,9.85-5.36,20.13-9.83,30.46-14.18,2.76-1.16,5-2.46,6.28-5.52s4-4.87,6.7-6.71c-1.45,2.71-4.27,4.56-5,8.22a35.79,35.79,0,0,0,11.45-5.33c9.37-6.13,18.57-12.53,27.91-18.72,2.88-1.91,4.19-4.9,5.36-7.77,1-2.47-1.08-4-3.39-4.57-1-.26-2.43-.27-2.27-1.49.51-4-2.07-7.12-3.93-9.79a92.75,92.75,0,0,1-11.1-21.91c-1-2.67-2.75-4.77-4.38-7s-3-4.16-2.52-7.14-1.91-4.35-4.19-4.75c-2.79-.5-4.35-2.17-5.69-4.24q-14.48-22.32-28.85-44.71c-1.15-1.79-2.28-3.29-4.7-3.33a6.37,6.37,0,0,1-5.07-3.06c-3.13-4.5-6.06-9.14-9.08-13.72-1.08-1.64-1.07-3.22-.83-5.27a9.91,9.91,0,0,0-4.36-9.35,6.72,6.72,0,0,1-3.19-4.91c-.47-4.25-2.51-8.32-4.39-11.62a47.12,47.12,0,0,0-5.58-7.38,18.61,18.61,0,0,1-3.72-7.3c-3.37-11-9.85-13.52-19.84-8-1.24.69-2.44,1.44-4,2.34,2.24,1.67,4.55.26,6.69,1.47-7.52,0-12.58,4.3-17.69,9-4.32,4-10,5.86-15.38,8.09-2,.81-4.21,1.19-6.06,3.33,5.18,2.59,10.43,4.7,15,8,3.66,2.67,6.87,5.48,6,10.7-.41,2.37,1.8,3.6,2.89,5.14,2.83,4,2.72,9.16,5.75,13,1,1.31,1.35,3.36,3.64,3.3.74,0,1.08.34.64,1.09-1.56,2.67.54,4.72,1.26,7,3.13,9.82,7.2,19.22,13.13,27.72a46.38,46.38,0,0,1,4.52,8.45,5.86,5.86,0,0,1-7.75,7.57c-4.6-2.11-9.64-3.8-10.5-9.9a.82.82,0,0,0-.18-.39c-7.3-9.92-10.59-22-17.47-32.17-3-4.41-6.21-8.37-10.69-11.24-.72-.47-2-1.31-1-1.73,4.88-2.1.21-3.45-.53-4-5.26-4.07-10.48-8.26-16.64-11-3.86-1.71-6.72-4.86-10.19-7.15-7.53-5-16.46-5.48-24.77-7.93-2.38-.7-8.33,4.71-8.1,7.9.36,4.94-3,7.64-5.11,11.13-.58,1-1.68,1.64-1.67,3.2,1.61.62,2.25-.8,3.05-1.59,3.33-3.25,6.58-6.58,9.9-9.84.82-.8,1.8-1.75,3.06-1,1.48.88,1,2.33.54,3.52a7.88,7.88,0,0,1-1.89,3.38c-6.83,5.33-10,13.27-14.71,20.14a11.43,11.43,0,0,0-.94,1.47c-1.1,2.34.23,4,1.83,5.3,1.8,1.48,2.58-.6,3.42-1.49,6-6.35,11.5-13.13,15.58-20.94.52-1,1.18-1.93,2.14-3.46,1.29,2.75.32,4.68-.56,6.52-3,6.37-7.59,11.68-12,17.13-3.07,3.84-6.6,7.42-7.3,12.65-.2,1.46-1.56,2-2.54,2.84-6.89,5.83-12.86,12.56-18.91,19.28a21.5,21.5,0,0,0,10.14-6.61c9.76-10.57,20-20.73,28.89-32.09a24,24,0,0,1,5.7-5.32c-4.82,13.41-16.14,22.13-25.17,34,3-1,4.74-1.56,6.53-2.13,1.38-.43,2.95-1.21,3.91.45s0,3-1.13,4.3c-1.45,1.63-3,3.2-4.31,4.91a22.85,22.85,0,0,0-4.31,8.39c-1.35,5.08-5.89,8.16-9.24,11.92-2.35,2.64-5.27,4.77-7.93,7.13l1.07,1.15c6-4.07,12-8.08,17.85-12.24,2.07-1.46,3-3.86,4.12-6.08,4.14-8.46,8.73-16.7,12-26.93a13.14,13.14,0,0,1-.39,9.82c-1.6,4.21-3.56,8.28-5.32,12.43-.48,1.14-1.92,2.46-.78,3.53s2.22-.63,3.27-1.23c.5-.28.89-.75,1.38-1.06,1.12-.72,2.43-1.55,3.51-.22,1.28,1.59-.46,2.43-1.33,3.11a110.58,110.58,0,0,0-19.14,20c-1.26,1.63-2.27,3.21-1.27,5.55,1.15,2.68-2.38,4.07-2.41,7.05,4.23-3.19,5-7.92,7.13-12.54,2.21,3.94,3.63,2.33,5.35-.14,7.87-11.32,17.57-21.39,23.32-34.17a1.22,1.22,0,0,1,1.6-.81c.46,4.69-1.62,8.65-4.13,12.32-5.25,7.69-10.72,15.23-16.09,22.83l-1.7,2.41c4.7,1,4.14,3.74,2.48,6.8-2.23,4.13-5.67,7.35-8.43,11.08-.59.8-1.55,1.36-1.37,2.91,2.34-.17,3.64-2.23,5.54-3,1.35-.57,2.82-1.44,4-.08s.15,2.84-.83,3.86c-5.12,5.36-10.31,10.64-15.52,15.9-.38.38-1.11.4-1.19,1.15,5.34-2.41,11-3.78,15.63-8.44.29,3.41-2.58,5-2.82,8.43A258.51,258.51,0,0,0,569,207.74c1.93-2.72,3.66-5.59,5.48-8.39.45-.69.64-1.94,1.72-1.56,1.27.46.9,1.78.55,2.65a34.63,34.63,0,0,1-2.63,5.49c-7.26,11.66-16.31,21.93-25.27,32.25-1.52,1.76-3.09,3.44-1.65,5.7,2.17,3.41.55,6.12-1.23,8.8-1,1.44-2.39,2.55-3.38,4-2.25,3.2-6.28,5-6.71,9.73-.19,1.95-2.43,3.54-4.3,4.73a16,16,0,0,0-4,4,2,2,0,0,0-.12,2.76c1.21,1.59,1.61-.14,2.29-.57,1.22-.78,2.39-1.9,3.94-1s.22,2.38.52,3.85c4.59-1.91,5.68-6.39,7.93-9.95.83-1.32,1-4.26,3.08-3.33,1.81.82.22,3.14-.35,4.68-3.45,9.49-9.19,17.64-15.1,25.85,2.5-1.63,5-3.32,7.53-4.88,1.34-.82,2.83-1.83,4.46-.85,1.89,1.15.6,2.86.51,4.35.28,0,.58.2.78.11,1.23-.54,2.19-2.73,3.65-1.39s-.13,2.87-1,4.1a24.86,24.86,0,0,1-1.74,2c-3.93,4.5-8.65,8-11.44,13.88-2.37,5-7.65,8.56-12.12,13.27,6,.18,6.56-5.81,10.23-8.09,1.21,2.87-1.63,4.74-1.22,7.8a112.32,112.32,0,0,0,17.2-17.86c-2.14.15-3.17,2.27-6.27,1.18,5.64-3.33,7.43-10.47,15.24-9.45,2.32.31,2.87-2.52,4.15-4,.54-.62.86-1.77,1.94-1.3,1.24.55.93,1.73.51,2.65a27.49,27.49,0,0,1-5.39,7.36c-4.23,4.41-8.61,8.68-12.8,13.13-3.11,3.3-3.06,7.47,0,11,.6.69,1.46,1.46.93,2.22-3.27,4.72-1.23,12.19-7.93,15.17-.94.42-1.5,1.7-1.81,3.2,1.53-.88,3.08-1.76,4.6-2.67,1.12-.67,2.25-2,3.33-2,7.47.36,9.55-6.34,13.77-10.21,1.47-1.34,2.41-3.26,5.24-4.47-2.65,8.14-8.69,13-13.38,18.89,4.75,1.14,5,1.72,2.28,5.6-1.55,2.25-1.55,2.25-1.56,6.07,3.76-3.42,7.22-6.64,10.76-9.78,1-.88,2-2.89,3.51-1.53,1.69,1.56-.29,2.84-1.27,3.95-3.64,4.15-7.4,8.21-11,12.37-1.07,1.23-2.51,2.28-1.05,4.48,1.09,1.63-.35,3.34-1.54,4.62-2.26,2.43-4.63,4.75-7,7.15.84.95,1.29.06,1.76-.24,1.13-.71,2.35-1.62,3.52-.41,1.33,1.39.25,2.65-.65,3.83-3.1,4-7.08,7.23-11.15,11.11,4.66-.38,7.44-2.7,9.71-5.72,3.24-4.3,6.35-8.68,9.54-13,.74-1,1.36-2.94,2.72-2.29,1.84.88.34,2.59-.12,3.79a50.85,50.85,0,0,1-11.81,17.64c-3.37,3.42-6.82,6.76-10.2,10.17-.68.68-1.81,1.35-.92,2.52a2.12,2.12,0,0,0,3.1.51c1.56-1.05,3.05-2.23,4.63-3.26,2.25-1.46,4.39-3.83,7-.33,1,1.26,2.13,0,3-.73,2-1.74,3.76-3.54,6.9-2.11,1.45.66,2.4-1.27,3.54-2.11,1.41-1,2.83-3.65,4.63-1.83s-.46,3.74-1.79,5.06c-5.38,5.31-11.11,10.28-16.33,15.74-5,5.24-9.56,10.92-14.32,16.41l-1.15-1c4.45-2.68,8.83-5.47,13.36-8,3-1.69,6.29-3,9.44-4.48,1.36-.64,2.84-1.35,3.86.28s-.1,2.84-1.13,3.87q-4.64,4.64-9.39,9.11c-1.14,1.08-2.65,1.79-3.18,3.53,1.56.39,3.25-.67,4.6.69,4,4,5.83,3.31,1.67,9s-9.54,9.7-14.81,14a18.69,18.69,0,0,0-2.53,2.33c-.54.65-1,1.58-.3,2.37s1.63.31,2.37-.13c3-1.77,5.93-3.72,9-5.31,1.59-.82,3.74-3.53,5-1.41,1.1,1.87-2.15,2.95-3.75,4-3.28,2.16-6.71,4.09-10.07,6.11-1.21.73-2.55,1.34-2.89,3.5,6.71-2.95,12.43-7,19.13-8.95.7-.2,1.37-.48,2.07-.69,1.34-.41,2.64-.42,3.47.93s0,2.22-.71,3.17c-1.44,1.92-4.8,3-2.8,6.48.11.19-1,1.33-1.73,1.71-16.61,8.57-30.15,21.74-46.36,30.93-6.45,3.66-12.78,7.5-19.7,10.24-1.76.7-3.39,1.17-4.81-.36s-.28-3,.08-4.51c1.24-5.17,6.15-7.13,9.26-10.67.52-.59,1.65-.72,1.49-2.14-5.86,1.12-10.39,5.13-15.82,7-4.06,1.38-6.64,4.17-9,7.5-.91,1.28-1.09,2.07.28,2.74,11.89,5.73,19,17,28.65,25.23,22.34,19.14,45.07,37.71,69.45,54.2,3.89,2.63,8.57,4,11.06,8.77,1.23,2.38,5,2.78,7.62,3.91,3.3,1.4,5.78,3,5,7.43-.61,3.48,3.18,3.58,5.19,4.93,1.55,1,3.3,2,5.1.17,4.25-4.41,9.32-7.86,14.78-12.2-2.61.18-6.51,2.21-4.2-2.67-3.84.88-7.6,1.75-11.36,2.59-1,.23-2.1.28-2.73-.76a2.29,2.29,0,0,1,.4-2.81c1-1.26,3.84-2,2.77-3.84-1.19-2.09-3.34.16-5.08.24a2.91,2.91,0,0,1-1.91-.52c18-9.55,36.86-17.51,52.9-30.44-5.27,1.88-10.93,2.21-15.82,5-14.35,8.33-28.72,16.61-44,23.06-.88.38-1.71,1.21-3.18.4,2.23-2.84,5.45-4.16,8.28-5.89q11-6.71,22.21-13c4.52-2.55,6.68-7.74,11.94-9.37l-.68-1c-3.66,1.62-7.44,3-10.94,4.91-10,5.45-20.81,8.83-31,13.87-1,.48-2.06,2-3.39-.5-.77-1.42-3.6.5-5.52.78-1.2.18-2.77,1-3.43-.7s.4-2.76,1.8-3.51c1.16-.61,2.36-1.13,3.5-1.78.85-.48,3-.17,1-2.35-1-1,1.12-1.71,2.06-2,7.77-2.66,14.62-7.16,22-10.66,5.75-2.74,8.81-9.13,15.53-10.34-1.75-.83-2.88.25-4.1.81-6.33,2.95-12.6,6-19,8.92a68.9,68.9,0,0,1-7.75,2.93c-1.3.41-3.27,1.16-3.83-.58s1.56-2.13,2.8-2.62c10.44-4.13,20.22-9.65,30.44-14.23,2.08-.93,3.18-2.16,2.13-4.35s-2.72-1-4.13-.44a40,40,0,0,0-6.36,2.84c-6.91,4.31-14.8,5.63-22.47,7.43-7.12,1.67-14.6-.05-21.84,1.82-4,1-8.3.93-12.73,1.36.44-1.7,1.61-1.34,2.44-1.53,8.23-1.86,16.48-3.63,24.69-5.56,4.76-1.11,8.35-4.36,12.42-6.81,7.67-4.63,16.15-7.89,24.37-11.58,13.06-5.85,27.54-8.76,38.9-18.24,1.29-1.08,3-1.68,4.21-4a1150.09,1150.09,0,0,1-110.91,41.84l-.64-1.16c2.42-1.21,4.82-2.45,7.25-3.63,1.3-.64,2.67-1.16,4-1.79.66-.32,1.31-.86,1.08-1.68-.36-1.21-1.42-.9-2.17-.59-2.55,1.05-5,1.31-7.43-.34-.65-.44-2-.09-2-1.26s1.31-1.44,2.23-1.72c5.16-1.52,10.35-3,15.51-4.49,1.49-.44,3.2-.49,4.16-2-.07-1-.76-1.2-1.51-1.26-1-.08-2.14-.13-2.25-1.51a2.65,2.65,0,0,1,1.77-2.74c2.4-1,4.83-2,7.31-2.94-.68-1.39-3.23-.56-3-2.58.2-1.67,1.72-1.86,3-1.81,16.15.59,30.1-7.09,44.78-12,5.23-1.75,10.39-3.76,15.53-5.77,3-1.19,5.94-2.25,9.26-.85.91.38,2.3-.05,3.36-.42,6.3-2.23,12.58-4.55,18.85-6.85,3.51-1.3,6.81-2.91,10.89-2.3,2.84.43,5.77-1.05,8.24-2.48,6-3.49,12.68-5.2,19.07-7.66,9.49-3.65,17.09-10.22,24.83-16.82-1.24.43-2.52.8-3.73,1.31-24.86,10.35-49.93,20.15-76,27.09-3.56.95-5.2,4.46-8.72,5.55-26.53,8.29-53,16.9-80.64,20.71-5.3.73-9.92,4.18-15.63,3.25-3.4-.56-6.67-.82-8.64-4.13a2.72,2.72,0,0,0-2.9-1.46c-1.29.14-2.83.36-3.1-1.47s1-2.64,2.44-3.2c3.37-1.35,6.81-2.54,10.18-3.9,27.43-11,56.49-17,84.18-27.26,9.86-3.64,19.94-6.69,29.78-10.46a300.56,300.56,0,0,1-31.45,6.4c-9.19,1.28-18.42,2-27.37,4.78-10,3.1-20.05,5.9-30.3,8-1.41.29-3.58,1.55-4.09-.61-.47-2,1.9-2.22,3.37-2.63,17.36-4.81,34.69-9.72,52.23-13.89,15.84-3.77,31.78-6.93,47.78-9.86,8.74-1.61,15.46-7.26,22.88-11.45,12.4-7,24.75-14.29,38.16-19,7.12-2.51,15-3.33,22.12-6.06,8.75-3.36,18.47-3.59,26.71-8.43-.35-1.74-2.38-1.2-3-2.84,4.82-2.29,9.38-5.36,15.19-2.88,6.38,2.73,12.75,1.81,19.11-.4.31-1-.78-1.4-1.05-2.19-.37-1.06-1.44-2.36-.3-3.17,1.55-1.1,1.71.89,2.38,1.63,3.55,3.93,7.62,6.21,13.14,4.51,1.33-.41,2.53-.42,1.9-2.47-.78-2.5,1.15-2.68,2.36-1.61,4.73,4.17,10.38,3.05,15.81,3.16,4.62.09,8.62,1,10.67,5.88.77,1.84,2.43,3.29,4.51,1.78,3.62-2.64,6.32-1.09,8.72,1.64,2.56,2.92,5.6,4.7,9,6.63,5.88,3.29,11.57,8.2,11.76,16.27a2.87,2.87,0,0,0,1.32,2.6c7.57,4.22,11.2,12.3,17.57,17.72,7.24,6.17,14.5,12.11,23.86,14.84a21.61,21.61,0,0,1,7.56,4.28c1.69,1.4,2.9,3.12,1.36,5.27-1.19,1.65-.35,2.26,1,2.95,2.32,1.2,4.62,2.45,6.9,3.72,4.81,2.66,5.76,2.15,5.76-3.22q0-38.64,0-77.27c0-1.84-.33-3.74.55-5.74,1.49,1.73.89,3.54.89,5.17q.06,38.85,0,77.71c0,3,0,5.49,3.4,7.18,3,1.53,4,4.76,2.07,7.88-1.29,2.13-1.67,3.57.84,4.87.72.36,1.7,1,1,2s-1.53.28-2.37,0c-4.92-1.75-4.93-1.73-4.93,3.38q0,52.83,0,105.65c0,1.85.38,3.76-.68,6-1.19-1.94-.76-3.77-.77-5.48,0-35.8-.07-71.59.06-107.39,0-4-1-5.67-5.11-6.88a72.22,72.22,0,0,1-24.25-12c-4.92-3.79-9.42-8.21-14.86-11.47-3.3-2-4.64-6.34-8.06-8.87-4.12-3-8.42-5.83-12.42-9-6.49-5.18-13.56-9.59-19.61-15.37a49.06,49.06,0,0,0-10.19-7.38c-5.47-3-9.89-7.16-14.16-11.53-3-3.09-8.06-3.19-11.61-.84a7.87,7.87,0,0,1-8.17-.09,12.34,12.34,0,0,0-7-1.66c-5.53.07-11.06.08-16.59.18-2.51,0-4.64.74-5,3.72-.06.43-.1,1.14-.32,1.22-3.57,1.23-4.27,5.3-7.28,7.16A131.67,131.67,0,0,0,764.83,468l16.67-8,.67,1.17c-4.07,4.37-9.75,6.58-14.73,10.07,1.4.9,2.64-1.14,4.64.55-5.77.73-3.93,7.16-8.06,9.21a1.18,1.18,0,0,0-.33,1.88c1.32,1.59.61,2.66-.81,3.55s-2,1.71-.28,3.18c1.33,1.16-.08,2.26-.87,3.31C754,503,744.36,511.11,733.86,518.29c-3.94,2.69-6.38,6.89-9.16,10.94,2.69-1.59,5.36-3.21,8.08-4.75,1.41-.8,3-1.58,4.33,0s-.27,2.5-.88,3.75a39.39,39.39,0,0,1-12.43,14.37c-6.66,4.91-10.07,12.47-15.64,18.4,7.85-2.6,14-8.21,21.38-11.89.52,2.57-1,3.29-2,4.21a43.54,43.54,0,0,1-3.79,2.94c-8.19,5.9-16.13,11.69-22.78,19.79-9.68,11.8-22.89,20.11-35.27,29-5.55,4-11.2,7.85-16.92,11.6-2.49,1.63-5.26,2.85-8,4.33-.48-2.08,1.65-2.41,1.44-4-4.77,1.48-8.13,5.47-13.2,7.36.55-3.78,4.72-5.59,4.06-9.27-10.34.7-17.92,7.44-26.43,12.14-1.76,1-1.41,2,.17,2.81,2.2,1.12,4.53,2,6.65,3.27,3,1.78,4.41,4.13,2.15,7.57-2,3-1,5.75,1.22,8.19.68.75,1.6,1.28,2.29,2,1.55,1.63,2.21,3.5.74,5.49s-3.48,2.57-5.4,1.32c-7.14-4.63-15.59-5.24-23.29-8-4.44-1.61-8.22-5.15-12.14-8-6.56-4.81-13.24-9.39-20.79-12.55a18.51,18.51,0,0,1-6-4c-4.14-4.12-9.23-7.11-13.77-10.74-4.18-3.33-8.44-6.51-12.76-9.64-.77-.56-1.72-1.66-1.66-2.45.51-6.7-4.93-9.56-8.82-12.91-12.65-10.91-25.77-21.26-38.61-32-2.28-1.89-5-3.66-5.38-7.11a3.94,3.94,0,0,0-1.46-2.07c-14-12.23-27.68-24.84-42.89-35.62-3.37-2.39-5-6.31-7.74-9.2-5.38-5.69-10.87-11.33-16.58-16.66-4.86-4.53-10.8-7.94-16.57-11.41-4.48-2.69-7.66-6.93-11.13-10.72s-6.54-8.53-11-11.62c-2-1.37-2.37-3.25-2.58-5.22s-.88-3.49-2.6-4.21c-8.14-3.38-12.38-10.88-17.61-17.13-9.78-11.67-19.11-24-29.55-34.82-9.62-10-15.89-22.6-26.72-31.36-1.7-1.37-2.61-3.26-5.12-.54s-5.47,1.17-7.61-1.14a27.35,27.35,0,0,1-3-4.8c-.84-1.41-1.46-3-3.56-1.24a2,2,0,0,1-3.29-.65c-.66-1.46.26-2.49,1.61-3.09.91-.4,2.42-.75,1.63-2-3.26-5.09-2.47-11.7-6.46-16.51-2.48-3-5.43-5.69-6.58-9.65-.44-1.52-1.55-1.58-2.62-.37-2.53,2.84-5.18,1.79-8.29.81-7.84-2.45-14.32-7.59-21.88-10.53-4.5-1.76-7.41-.19-7.88,4.68-.32,3.31-.82,6-4.68,6.79-1.08.21-1.53,1.3-1.91,2.24A74.81,74.81,0,0,1,197,338.88c-3.17,4.56-3.9,9.81-5.5,14.87,9.11-9.58,16.66-20.32,24.34-31-.26,4.76-3.09,8.28-5.39,12-5,8.05-11.21,15.21-17.18,22.54-.76.95-2.91,2-1,3.49,1.68,1.33,2.95-.17,3.91-1.52,7.84-11,16.13-21.75,22-34.07.45-.94.55-2.8,2.06-2.23s.91,2.26.56,3.48c-1.29,4.52-3.69,8.54-6,12.55-2.2,3.77-4.67,7.37-7,11.06-1.73,2.71-3.84,4.9-2.69,9,.77,2.74-1.48,6-3,8.87-.44.85-1.34,1.53-.49,3.47,3.07-4.36,4.59-8.81,6.29-13.15.45-1.14.11-3.33,1.68-3.08,2.06.32,1.61,2.57,1.29,4-1.43,6.44-4.41,12.3-7.36,18.14-.94,1.88-2.52,3.64-1,6.85,8.38-13.51,14.58-27.53,21.44-41.24,1.07,3.48-.55,6.34-1.39,9.3a33.1,33.1,0,0,1-3.06,7.69c-4.15,7.05-4.84,15.66-9.53,22.3-4.46,6.33-8.23,13-12.24,19.59-4.22,6.91-8.43,13.83-12.31,21,3.85-2.78,6.45-6.71,9.37-10.31,1.83-2.26,3.42-4.71,5.19-7,.63-.81,1.56-1.52,2.65-.87s.81,1.8.35,2.72a16.24,16.24,0,0,1-2.21,3.74c-5.05,5.66-8.37,12.58-13.61,18.11-5.42,5.71-8.83,12.75-12.17,19.8,14.37-11,23-26.66,32.88-41.83,1.54,2.73.19,4-.44,5.35a253.43,253.43,0,0,1-15.59,27.76c-1,1.61-2,3-.86,5.15,1.31,2.47-.58,4.34-2.07,6.16q-9,11-17.81,22c-.73.91-2.43,2-.83,3.24,1.32,1,1.92-.81,2.64-1.55,1-1,1.84-2.26,2.75-3.39,1.48-1.84,1.48-1.8,4.49-1.21,1.07.21,1.37-.86,1.88-1.49,3.42-4.16,6.79-8.35,10.2-12.51.79-1,1.57-2.57,3.07-1.46s.31,2.38-.22,3.54c-1.55,3.44-4.74,5.4-7.16,8.06-4.58,5-8.71,10.49-13.08,15.84,4.6-.13,5,.52,3,4.57-.59,1.15-1.07,2.15.26,3,1.5,1,2.42,0,3.25-1.11a68.54,68.54,0,0,0,10.86-21.27c.3-1.07.25-2.83,1.64-2.69,1.64.16,1.49,2,1.38,3.22-.65,7.16-3.92,13.31-7.61,19.29-1.34,2.18-3.07,4.07-2.42,7.14.41,2-1.8,3.14-3,4.53-2.93,3.3-7.12,5.48-9.32,10.5,3-.79,4.23-3.63,6.93-3.19,3.18.5,3.26,2.68,2.3,6.44,2.74-3.26,5.17-5,4.4-8.42-.63-2.82,1.85-3.23,3.39-3.63,2-.52,1.12,1.8,1.76,2.73,3,4.32.89,7.86-1.63,11.45-3.9,5.55-5.19,12.63-10.27,17.53-1.67,1.61-3.11,3.45-4.63,5.21-1.28,1.47-2.77,3.48-1.12,4.93,1.39,1.21,3.92.89,5.68-.43a12.35,12.35,0,0,0,2.24-2.66q7.91-10.71,15.77-21.44c1-1.39,2-2.81,4-3.31-5.83,12.48-14.78,22.93-22.25,34.36,4.48-2.91,6.47-7.95,10.06-11.57,2.14-2.15,2.63-6.92,7.87-4.66,1.37.59,1-3.35,3.13-4.43,2.28,4.34.06,8.65-1.46,11.93-2.48,5.35-1.58,10.4-1.37,15.66.3.06.6.22.84.15,2-.59,4.3-2.36,6-.21,1.86,2.31-.73,3.91-1.84,5.63-2.24,3.5-5.53,6.39-6.27,10.77-.07.41-.6.85-.52,1.17,1.86,6.84-4,9.34-7.55,12.82-6.16,6-10.18,13.8-16.6,19.68,3.47-1,6.85-1.48,9.44-4.66,9.65-11.83,19.77-23.29,27.87-36.32,1.41-2.27,2.83-4.58,5.27-6.05-1.73,6.24-4.91,11.72-8.44,17-1.92,2.85-1.59,5.28.25,8.78,1.84-3.72,3.33-6.82,4.91-9.88.61-1.17.73-3.5,2.57-2.76,1.58.64.44,2.58.19,4-.66,3.72-2.94,6.85-4.25,10.6,2.54-.37,3.37-2.65,5.21-3.4,1.31-.53,2.6-1.6,4.07-.49a3,3,0,0,1,.93,3.93c-3,4.81,2,10.42-2.93,15.3,6.45-1.12,9.62-4.42,11.92-8.87.49-1,1.19-2.54,2.48-2,1.7.77.56,2.31.09,3.4-2.7,6.36-6.84,11.83-11,17.25a15.85,15.85,0,0,0-3.16,8.79c1.78,0,2.48-1.06,3.17-1.91,2.78-3.41,5.73-1.71,8,.2s.9,4.49-.59,6.6c-1.31,1.84-3.65,3-4.18,6.5,6.87-6.19,11.41-13.4,17.52-19.18-.49,4.1-2.91,7.14-5.09,10.32-1,1.51-2.53,2.85-.06,4.67,1.76,1.31.17,2.79-.53,4.19-1.43,2.85-4.57,5.33-1.52,9.15.92,1.15-.39,3.06-1.07,4.49-1.21,2.6-2.69,5.09-2.75,8.13a37,37,0,0,0,7.69-16.91c.38-2.44.54-4.91.86-7.36.15-1.09,0-2.76,1.55-2.64s1.2,1.75,1.36,2.87c1.42,10-1.29,18.67-6.83,27.13-10.2,15.58-24.51,27.12-37.57,39.9-2.7,2.65-5.59,5.1-8.33,7.7-.9.86-2.72,1.35-2.33,2.84s2.34,1.48,3.69,1.76c7.84,1.62,15.72,3,23.54,4.72,34.86,7.5,70,13.43,105.19,19.11a17.34,17.34,0,0,0,5.2.41c8.26-1.22,16,1.44,23.17,4.45,9.88,4.15,20.24,5.72,30.49,7.47,6.09,1,12.37.94,18.52,2.65,6.48,1.8,12.95,3.52,19.25,5.88,3.95,1.48,7.93,2.48,12.21,1.24,1.9-.55,3.7.41,5.46,1.08a129.72,129.72,0,0,1,18.48,8.88c17,9.74,35,17.13,53,24.5a141,141,0,0,1,24.8,12.75c1.9,1.26,4,2.38,5.52,5.73l-25.75-11.38c.66,2.24,2.48,2.7,4,3.46,7.07,3.43,14.19,6.75,21.23,10.24,2.94,1.46,5.67,3,7.48,6.22,1,1.75,4.07,1.94,6.36,2.34a35,35,0,0,1,11.65,4.72,17.79,17.79,0,0,1,3,2.47,4.39,4.39,0,0,1,1,4.24c-1,1.47-2.54,0-3.79-.62-1.94-.87-3.53-2.47-6.29-2.88,1.93,1.78,3.55,3.16,5,4.66,2.83,2.81,5.4,5.35,6.55,9.81,1.07,4.11,5,7.61,8,11.06,8,9.08,15.45,18.64,24.49,26.74,2.15,1.93,3.48,4.78,2.82,6.93-1.91,6.25,2.73,9.93,5.76,12.87,7.63,7.39,16.29,13.67,23,22.1,4,5,8.84,9.24,13.38,13.76,4,4,7.9,8.19,10.5,13.3,1.47,2.91,3.56,3.65,6.66,3.64q58.27-.09,116.56,0c1.26,0,2.52.13,4.05.22-1.16,1.74-2.55,1.11-3.69,1.11q-57.63.07-115.25.09c-5.33,0-5.28,0-3.23,4.7a106.09,106.09,0,0,1,5.88,16.88c.76,3.1.76,6.05-1.41,8.67h-8.73a12.57,12.57,0,0,1-2.12-4.73,102.62,102.62,0,0,0-8.5-21.87c-1.36-2.7-3.06-3.74-6.11-3.71-15.24.13-30.49,0-45.74.08-1.24,0-2.94-.65-3.64.61-.8,1.42,1,2.18,1.72,3.14,6.45,8.21,13.18,16.25,16.37,26.48H590.55c-1.88-6.75-6.19-12.08-10.39-17.43-2.34-3-4.77-6-5.93-9.55-1-2.88-2.42-3.34-5.06-3.32-19.61.09-39.23,0-58.84.08-1,0-2.3-.57-3.27.84,7,5.7,14.11,11.24,20.22,17.86,3.06,3.31,6,6.74,6.52,11.52h-14C517,978.25,512,975,507.57,971.33c-6.93-5.76-14.31-11-21.4-16.55-2.08-1.63-4.33-1.44-6.63-1.44H-.23c-1.6,0-3.2-.08-4.8,0-2.52.13-3.85-.84-3.69-3.52.08-1.45,0-2.91,0-4.37q0-92.55,0-185.1c0-7.54.08-15.08-.09-22.62-.1-4.23-2.37-8-2.06-12.53.63-9.27,1.08-18.54,2.28-27.77a4.47,4.47,0,0,0-.46-2.68q-2.28,9.9-4.57,19.8c-.24,1.06,0,2.76-1.55,2.62s-1.17-1.8-1.07-2.87c1.51-15.77.57-31.68,2.63-47.41.35-2.7,0-5.89,3.86-7,1.65-.49.89-2.63.9-3.93.13-18.63.13-37.25.15-55.88,0-9.46.05-18.91,0-28.37,0-2.55,1.11-5.5-2.15-7.29-.84-.47-.61-2,.11-2.79,3.91-4.46,1.42-9.77,2-14.66.2-1.71-.87-1.88-2.27-1.27-1.21.53-2.7,1-3.46-.45-.63-1.23.49-2.42,1.41-2.88,4.55-2.22,4.59-6.16,4.42-10.36-.17-4,.33-8-3.59-11-2.56-2-2.1-6.69.69-8.39s2.89-4,2.89-6.66q0-70.5,0-141c0-1.84-.29-3.74.57-5.78,1.44,1.92.87,3.85.87,5.63q.06,70.07.07,140.13c0,1.52-.84,3.64.75,4.44s3.27-.7,4.53-1.86c3.16-2.93,7.18-4.39,10.87-6.4,1.85-1,3.52-2,3.54-4.51,0-3.05,1.73-5.09,4.11-6.79,11.1-8,22.25-15.87,33.21-24,3.24-2.41,6.12-5.39,4.86-10.28-.52-2,1.47-3,2.71-4.14,2-1.8,3.93-3.38,2.58-6.62-.71-1.73.72-3.15,2.3-3.72,13-4.7,20.94-15.87,31-24.28,6-5,11.71-10.42,17.44-15.77.74-.69,4-1.42.57-3.51-1-.61,1.18-2.67,2.26-3.67,6.6-6.15,13.32-12.16,19.55-18.7,2.71-2.85,5.11-5.92,7.61-8.93,2.18-2.63,2.19-3.93-1.42-4.44-.51-.07-1-.47-1.6-1.2,7.72.59,11.6-4.38,15-10.12-3.9,2.3-7.91,4.42-11.68,6.92-6.1,4-13.26,4-20,5-3.47.52-7.49-1.43-11.31-2.13-6.2-1.14-11.7-3.74-18.79-1.92-6.86,1.77-14.69.91-22-.83-3.35-.8-7.15.37-10.87-2.63,6-.95,11.19,1.44,17.47.53-5.3-1.63-9.66-3-14-4.33a55.82,55.82,0,0,1-9.83-3.49c-2.16-1.12-4.05-1.59-6.72.32s-6.35.45-9.27-1.13c-13.17-7.11-26.26-14.38-38.56-23C-4,323-5.07,321.2-6.54,322s-.58,2.66-.67,4c-.26,3.71.4,7.48-.41,11.15l-1.11,0c0-4.68-.14-9.37.06-14a6.66,6.66,0,0,0-3.4-6.46c-6.05-4-11.77-8.51-16.42-14.22-2.21-2.71-4.2-5.48-4.85-10.42,5,5.71,9.42,10.44,14.48,14.42,1.12.89,3.13,3.2,3.68,1.55.8-2.41,6-3.6,2.34-7.49-4.22-4.42-2.08-9.73-1.7-14.83,2.79,3.5,2.11,8.48,5.72,12-.1-5.51.92-10.67-1.25-15.69-.47-1.08-2.07-3.08,1.12-3.14a8.18,8.18,0,0,0,.21-2c0-13.24-.08-26.48.07-39.72,0-3.46-2.26-3.9-4.58-4.78-1.09-.42-3.06-.31-2.7-2.13.26-1.34,1.93-.87,3-1.12,1.46-.34,3.74,1.32,4.18-1.61.33-2.27-.52-3.8-2.58-5a36.88,36.88,0,0,1-15.95-17.94c-.43-1-1.36-2-.56-3.25,1.65-.47,1.88,1,2.47,1.85,3.51,5.24,7.48,10,12.92,13.4.94.58,1.87,1.81,3.08,1.09s.63-2.13.63-3.24c0-12.07,0-24.15.05-36.23,0-1.38-.46-2.9.68-4.23,1.33,1.39.74,3.06.75,4.55.06,12.07.18,24.15-.05,36.23-.07,3.79,1.25,5.71,4.71,7.19C15.23,229.56,34,233.35,53.08,236c26.2,3.66,52.47,6.85,78.93,8a5,5,0,0,1,.87.06c1.3.31,3.49-.18,3.36,1.72-.1,1.54-2.14,1-3.36,1a235,235,0,0,1-36.56-1c-22-2.08-44-4.12-65.7-8.64a7.71,7.71,0,0,1-2.12-.48c-6.18-3.19-11.91-.17-17.69,1.36-2.82.75-5.16,2.27-3.9,6.33-3.39-.6-5-2.79-6.85-4.74-1-1.06-1.76-2.33-2.82-3.29s-2.18-1.76-3.53-1.19-.88,2-.93,3.12c-.7,16.08-.68,16.11,14.16,22.88.82.38,2.19,1.47,2.47-.16,1.09-6.37,3-1.27,3.9-.17,3.32,3.93,7.82,6.77,10.27,11.52a8.05,8.05,0,0,0,5.18,3.74c4.93,1.43,7.17,6.29,11.5,8.76,11,6.26,22.8,9.3,35,11.52,10.86,2,21.58,4.71,32.61,5.76,6,.56,12,1.26,17.92,2.29a26,26,0,0,1-9.77,1.86c-3.69-.05-7.22-1-10.9,2.07-3.39,2.79-8.21.38-12.16-.81-14.57-4.39-29.23-8.6-43.51-13.81-10.82-3.95-20.1-11-29.2-18C12.52,269.82,5,263.64-3.8,259.26c-2.63-1.31-3.54-1.34-3.47,1.92.13,6.54.2,13.1,0,19.64-.14,4.56,2.76,7.62,5,10.9,7.2,10.67,15.56,20.21,26.5,27.41,9.53,6.26,20.2,8.31,31.1,10a186.79,186.79,0,0,1-21.5-8.24c-4.08-1.93-8.16-3.9-11-7.68-.59-.81-1.46-1.76-.78-2.74.8-1.15,1.86-.3,2.69.2,26.59,16,56.34,19.19,86.34,21.66,5.13.42,10.41.11,15.45,2.09,2.72,1.07,5.77-.28,8.59-.82,8.72-1.65,17.38-3.57,26.07-5.34a17.76,17.76,0,0,0,8.08-4.09c8.53-7.24,17.28-14.23,24.33-23.05,2.75-3.45,7-5.22,9.93-8.8,1.69-2,7.31-1,11.15-.91a20.5,20.5,0,0,1,7.19,1.58c2.93,1.23,4.17.29,4.3-2.54.16-3.59,1.67-7.85-4-9-1.18-.23-1.31-1.43-1.07-2.52a2.5,2.5,0,0,1,2.35-2.24,4.64,4.64,0,0,0,5.27-3.5c.34-1,1-1.91,2.24-1.55a2,2,0,0,1,1.49,2.39c-.59,3.56,1.6,3.82,4.18,3.74a9.29,9.29,0,0,1,1.75.05c1.48.24,3.72-.28,3.78,1.92s-2,2.56-3.81,2.73a12,12,0,0,1-3,0c-3.08-.51-4.08.94-4.39,3.81-1.06,9.72-1.18,9.85,8,13.12,4.38,1.57,7.28,5.86,12.3,6.2,2.54.17,5.29-.55,7.56,1.28,1.3,1.86,3.3,1.61,5.15,1.67,3.78.12,7.82-.68,11.28.39,5.95,1.85,11.15,0,16.54-1.58,2.22-.67,4.4-1.5,6.59-2.27,1.25-.44,2.65-.86,3.22-2.09,1.4-3,4.13-4.33,6.81-5.81,1.45-.8,3.25-1.35,4-4.17-2.46,1-4.35,2-6.34,2.56-6,1.83-10.58,6.07-17.64,6.69C278.53,303.16,268.72,305.9,258.74,306.93Zm-202.58,303c.9-1.43,2.44-2,3.81-2.77,8.58-5,16.44-11,24.55-17.42-1-.23-1.34-.44-1.48-.34-8.69,6.21-17.76,11.85-26.82,17.48-1.64,1-1.31,2,0,3-.46,5.23-4.72,7.46-8.36,9.83-7.65,5-15.52,9.65-23.45,14.18-2.8,1.59-2.53,2.61-.28,4.23a111.2,111.2,0,0,0,14.15,8.57c8.67,4.44,8.66,4.45,12.72-4.55.41-.89,1.32-1.95,0-2.63-2.26-1.19-1.53-3.47-2-5.37-8.85,5.5-8.85,5.5-9.19-1.13-1-.4-1.6.38-2.33.77-1.24.68-2.66,2-3.68.06-.78-1.45.6-2.36,1.71-3.08,2.43-1.57,5-3,7.33-4.66,5.09-3.54,10.89-6.19,14.67-11.4C59.13,612.55,59.31,610.72,56.16,609.91ZM12.54,625.6c4,7.69,4.58,7.88,11.69,3.54,1.61-1,3.08-2.22,4.76-3.06,2.34-1.17,1.85-2.22.46-3.93-1.8-2.2-3.43-.84-5-.07-3.78,1.89-7.51,3.86-11.93,3.53.06-3.12,1.83-4.89,4.43-6.43,7-4.18,15-7.5,17.49-16.5.32-1.17,1.88-2.37.54-3.5-1-.82-2.18.28-3.18.79-1.42.72-2.78,1.55-4.17,2.33-3.4,1.93-6.77,3.93-10.24,5.74-1,.5-2.46,1.76-3.27-.23a2.52,2.52,0,0,1,1.3-3.33c.51-.28,1-.57,1.51-.87,7.09-4.29,14.17-8.6,21.29-12.85,1.65-1,3.12-2,3.19-4.49-7.22,4-14.26,7.69-20.83,12.22a50.74,50.74,0,0,1-10,5.26,2.64,2.64,0,0,1-3.69-1.33c-.84-1.75.88-1.9,1.71-2.44,6.69-4.36,13.47-8.59,20.14-13,2.55-1.69,4.88-3.74,7.31-5.63a10.66,10.66,0,0,0-5,1.8c-8.17,4.72-16.33,9.46-24.52,14.15-1.16.66-2.65,2.16-3.7.22-.85-1.59.18-3.14,1.68-4,2.38-1.41,4.87-2.62,7.25-4,4.57-2.69,9.09-5.45,13.63-8.18l-.74-1.21c-4.51,2.26-9,4.62-13.57,6.74-1.57.73-3.21,3-5,1.29-2.06-1.88-.2-3.31,1.3-4.55a.93.93,0,0,0,.26-.77c-1.32-4.69,2.49-5.78,5.32-7.19a111.85,111.85,0,0,0,29.53-21.15c.62-.62,2-.88,1.33-2.54-1.41.86-2.79,1.6-4.08,2.49C27.12,563.12,13.64,570.26,0,577.08c-1.9.95-4.6,3.44-6.07.95-1.79-3,2-4,3.92-5,13.11-7.21,26.29-14.27,39.43-21.42,3.1-1.68,3.06-1.75,4.63-4.21-11.08,4.22-22.81,5.85-32.6,12.69a55.3,55.3,0,0,1-8.41,4.61c-1.66.78-3.91,3.21-5.28.93s1.66-3.14,3.27-4.24c.11-.08,0-.47,0-1-3.73.25-6.06,2-6.07,5.88-.06,29.54,0,59.08-.08,88.62,0,2.48,1,3.17,3.33,3.38,4.31.39,8.67,2,11.36,5.05,5.57,6.37,13,10.23,19.33,15.47,11.81,9.72,23.31,19.72,34.3,30.35a223.76,223.76,0,0,0,20.11,17.4c21.36,16.3,45,28.38,70.09,37.66,5.38,2,10.59,4.45,15.88,6.69l-.38,1.05-33.29-10.47c-.24,1,.34,1.29.77,1.61,9.31,6.81,19.07,12.93,29.69,17.4,24.72,10.42,50.52,17.65,76.19,25.25a10.4,10.4,0,0,0,4.74,0,71.75,71.75,0,0,1,13.51-.39c1.64.06,3.82.42,3.63,2.27-.24,2.2-2.35.77-3.59.68-3.65-.25-7.3-.71-10.94-1.08,16.37,5.74,33.75,7.15,49.89,13.56l-14.09-1.18a7.06,7.06,0,0,0,3.19,1.91c17.25,6.32,35.44,9.38,52.79,15.26,5.07,1.72,10.81.2,15.32,3.56,8,6,17.56,9,26.19,13.84,14.36,8,28.53,16.29,42.85,24.34,10.06,5.66,19.61,12,28,19.9,1.57,1.48,3.78,3.11,3.13,5.4-.75,2.65.9,3.36,2.32,4.49,10.12,8.06,20.59,15.71,29.58,25.11,1.29,1.36,3.34,2.7,2.9,4.63-.64,2.82.95,3.94,2.7,5.24,3.16,2.34,6.34,4.64,9.46,7a7.56,7.56,0,0,0,4.87,1.53q32.29,0,64.61,0c3.69,0,6.73-.66,5.95-5.53-.09-.58,0-1.5,1.43-1.59,1.11,4.47,4.21,7,8.86,7.06,16.58.11,33.17.06,49.76,0a2.8,2.8,0,0,0,2-.55c.71-.88-.21-1.6-.75-2.21a99.26,99.26,0,0,0-7.77-8.26c-5.93-5.36-12.3-10.43-16.83-17-7.84-11.41-17-21.8-25.25-32.84-7.84-10.46-18.28-17.8-28.15-25.89a1,1,0,0,0-1.59.21l1.38,4.48-.92,1c-3.15-8-10.27-8.7-16.87-10.33a56,56,0,0,1-5.51-1.32c-3.42-1.22-7.28-1.59-9.78-4.81,6.29,1.74,12.51,3.62,18.91,4.77,1.12.2,2.51.91,3.26-.16s-.55-2.07-1.23-2.92c-5.82-7.26-11.54-14.62-17.57-21.7-3.27-3.84-6.07-8.27-10.83-10.62-14.74-7.29-27.7-17.52-42.19-25.31-25.45-13.68-51.22-26.43-79.3-33.7-12.52-3.24-25.34-5.33-38-8.22-28.71-6.56-57.78-11.37-86.63-17.3-23.58-4.86-47.7-6.95-71.2-12.83-27.61-6.9-54.55-15.45-80.24-27.81-6.81-3.27-14.06-5.6-21-8.6-2.07-.89-4.91.47-6-1-1.86-2.55-4.49-3.09-6.94-4.12-16-6.68-32-13.32-47-22-.6-.34-1.29-1.26-2.33-.24A225.58,225.58,0,0,0,75,687.66c39,21.91,80.08,38.09,123.85,47.34a229.14,229.14,0,0,0,38.47,4.9c3.41.14,6.68-1.56,10.53-.7-1.94,3.31-4.9,3.94-7.88,4.45-9.79,1.68-19.45,0-29-1.46-29-4.54-57-12.94-84.3-23.52-1.89-.74-3.74-1.67-5.83-.47-5.24,3-10.41,2.49-15.71-.09-7.19-3.5-14.61-6.51-21.72-10.14s-15-6-19.34-13.62c-.54-1-1.78-.86-2.69-1.26-4-1.74-7.94-3.58-11.91-5.37-.7-.31-1.36-.68-1.22-1.54,0-.32.64-.87.81-.81,2.87,1,5.94-.32,8.95,2a29.09,29.09,0,0,0,17,6.18L51.15,679.29c0,1.55,1.6,2.34.72,3.28-1.11,1.19-2.09-.14-3-.69a13.47,13.47,0,0,1-2.08-1.59q-17.55-15.72-35.06-31.47c-1.07-1-2.73-2-2.43-3.43.67-3.27-1.63-4.72-3.31-6.63-3.18-3.62-6.13-7.44-7.89-12-1.56-4-.05-8,3.11-9.4,3.47-1.51,6.66,0,8.72,4.26C10.62,623.11,11.15,624.63,12.54,625.6ZM142.29,784.37a12.83,12.83,0,0,0-6-3.55,34.11,34.11,0,0,1-7.94-3.55c-28.5-17.6-56.09-36.5-82.1-57.62C32.85,708.76,19,698.35,7.7,685c-3.08-3.66-5.31-8.06-9.28-10.94-1.27-.92-3.1-3.06-4.36-1.05s-.78,7.14.14,7.2c6.3.41,3.22,4.71,2.86,6.91-3.82,23.3-3.47,46.93-3.9,70.31C-8,820.29-7.24,883.16-7.23,946c0,5.82,0,5.84,5.65,5.84q239.18,0,478.36,0c1.37,0,2.87.48,4.66-.81-7.47-5.47-12.58-13-19.13-19.11-9-8.45-18.08-16.85-27-25.44-5.09-4.92-10.63-9.28-15-15.05-3.93-5.15-10.66-7.07-16.44-10-7.63-3.81-15.54-7-22.57-12.11-6.72-4.94-14.61-8.1-22.85-10.36l8.92,6.16c-2.18,1.5-3.85,1.13-5.57.73a19.06,19.06,0,0,1-9.59-5.77c-7-7.52-15.78-11.45-25.6-13.9-36.42-9.08-72.27-20.17-108.25-30.81-14.66-4.34-28.71-10.5-43.45-14.51a397.08,397.08,0,0,1-49-17.06c-6.85-2.87-13.54-6.11-20.31-9.19l.45-1.3C117.94,776.41,129.31,781.33,142.29,784.37ZM393.75,416.5a229.58,229.58,0,0,0,49-36c-2.28-.21-3.09,1-4,1.74-5.28,4.1-10.45,8.33-15.73,12.42-1.51,1.18-2.88,3.66-5.11,2.44-2.47-1.35.5-3.63-.21-5.66-4.17.8-7.09,4.62-11.26,5.2l-.63-1.07,20.79-15.34c-2.54-1.14-3.83,0-5.17.79-14.66,8.93-29.3,17.9-44.51,25.89-1.79.94-4.29,3.57-5.6,1.3s2.24-3.12,3.93-4.14c15.45-9.31,31-18.52,46.44-27.79,1.41-.84,3-1.65,3.25-4.81-18.54,12.34-37.71,22-56,34.71.45-3.45,2.68-4.7,3.86-6.6.7-1.13,1.5-2,.55-3.48-2.29-3.56-.63-6.71,1.46-9.63,1.31-1.83,2.9-3.45,4.36-5.17-7.56,3.48-14.93,7-23.52,8.52a3.59,3.59,0,0,1,2.57-2.62c6.7-2.74,12.26-7.21,17.83-11.65.79-.63,2.19-1.7,2.05-2.06-1.57-3.89,2-4.64,3.82-6.13,5.22-4.19,10.64-8.12,16-12.18.81-.61,2.08-1,1.94-2.57-3.37.48-5.67,4.13-9,3.12-2.91-.9-5-.08-7.25,1.32a36.47,36.47,0,0,1-9.26,3.79c-2.06.58-4.73,2.65-6,1.22s.5-4.19,1.21-6.3c.06-.19-.12-.46-.27-1a95.85,95.85,0,0,0-12.18,10.59c-.84.91-1.32,2.61-2.92,2.22-2.09-.51-.4-2.55-1.3-3.9-1.93,1.23-4.87,1.66-5.19,4.15-.34,2.7,3.51,2.11,4.95,4.18-9.24-2.2-9.24-2.2-16.62,2-8.68,4.88-9.09,7.45-2.33,15,1.06,1.19,2.31,2.21,3.44,3.35,16.23,16.25,34.62,30.19,50.36,47,7.16,7.64,14.77,14.86,22.11,22.34A111.42,111.42,0,0,0,429,477.18c1.82,1.17,4.18,2.25,5.07,4,2.93,5.82,9,7.64,13.51,11.33,1.17.95,2.67,1.33,2.54-1-.2-3.37,2.05-5,4.31-6.56,4.47-3.12,7.79-6.79,7-12.78-1.4.05-2.33,1.06-3.41,1.77s-2.46,2-3.85.63c-1.19-1.21-.76-2.76.13-4,1.35-1.88,2.84-3.67,4.28-5.49.49-.6.85-1.25.3-1.94s-1.35-.44-1.94,0c-1.76,1.29-3.46,2.66-5.18,4-3.9,3-7.78,6.11-11.7,9.11-.81.62-1.9,1.17-2.69,0-.56-.82,0-1.73.6-2.35,1.45-1.43,3-2.71,4.45-4.17a3.11,3.11,0,0,0,0-4.36c-1-1.09-2,.44-2.8,1.18a22.73,22.73,0,0,1-6.62,4.15,3.09,3.09,0,0,1-3.67-.39c-1.11-1.14,0-2.2.53-3.14a30.56,30.56,0,0,1,5.86-7.47c-2.25-1.19-7.07-.53-5.29-4.63,2.15-4.92,4-10.3,8.8-13.75a113.46,113.46,0,0,0,9-7.53c2.92-2.57,5.72-5.27,8.57-7.92-4.47,2.15-9.12,3.57-13,6.51-8.91,6.76-17.93,13.38-27,20-3.27,2.38-5.45,2-5.59-1-.22-4.54-5.21,1.14-5.48-2.76a4.39,4.39,0,0,1,1.09-3.24,57.17,57.17,0,0,1,4.51-4.7c3.53-3.21,7.15-6.32,10.73-9.48-5.14,2.48-8.85,7.18-14.49,8.43l-.84-1.16L416,431c-4.3-.83-7.77-.31-10.63,2.7-.72.75-1.91,1.66-3.1.65a2.67,2.67,0,0,1-.44-3.57c.3-.6,1.05-1.05.51-2.18-2,1-4,1.7-5.37-1-.17-.32-1.32-.22-2-.2-1.26,0-2.81.73-3.51-.8a4.33,4.33,0,0,1,.91-4.49c1.37-1.78,2.86-3.46,4.62-5.57Zm-20.68-96.05-.45-.82c-8.33,3.66-16.69,7.24-25,11-7.39,3.36-15.41,5.42-21.94,10.55-1.53,1.21-3.55,2-2.67,4.77.54,1.71-.72,3.08-2.25,3.83-1.69.82-1.94-.83-2.87-1.67-2.55-2.3-3.88,1.1-5.79,1.8s-1.39,2.24-.19,3.47c5.26,5.39,8.78,11.94,12.13,18.55,1.74,3.42,3.32,3.25,6.36,1.41,9-5.49,16.62-12.63,24.35-19.66,3.11-2.83,6.44-5.4,9.68-8.09l-.63-.92c-12.75,4.82-25,11.14-38.68,14.47.59-2.35,2.25-2.46,3.5-3,12.56-5.37,25.07-10.89,37.75-16a128.29,128.29,0,0,0,26.89-14.27,51.61,51.61,0,0,0,10.17-10.23c-4.48,2.23-8.61,4.89-12.9,7.29-20.38,11.39-40.13,24.18-63.37,29.41-1,.23-2.35,1.45-3-.17-.45-1.14,1-1.56,1.82-2.07,6.17-3.85,12.37-7.64,18.52-11.52C354.07,332.59,363.56,326.51,373.07,320.45ZM109,652.58c-4,2.72-8.41,3.31-11.91,6-1.06.8-2.34,1.5-3.55.36s-1.72-2.75-.66-3.94c4.44-5,6.08-12.26,12.7-15.5a6.84,6.84,0,0,0,4-5.69c-1-.4-1.39.36-2,.7C100.41,638.63,96,647.71,85.94,647c-.23,0-.5.27-.74.43-6.26,4.24-12.51,8.49-20,10.46-.78.2-1.89.56-1.65,1.63.11.51,1,1,1.6,1.25,12.54,5.39,25.1,10.73,37.64,16.13a3.55,3.55,0,0,0,4.64-1c1.52-1.84,3.08-3.65,5-5.86-2.26.1-3.15,1.44-4.44,2-2.72,1.15-2.86.09-.07-4.07-3.4,1.59-5.57.66-4-2.52,1.38-2.72,3.38-6,7.52-5.47a2.48,2.48,0,0,0,2.84-1.51,3.39,3.39,0,0,0-3.93-.78c-1.53.49-3.36,2.67-4.57.69s1.45-3,2.63-4.35A6.38,6.38,0,0,0,109,652.58Zm42-4.76c-2.62-1.26-3.79.18-5.18,1.21-5.35,4-10.47,8.43-16.82,10.76a12.35,12.35,0,0,0-5.26,3.56c-3.85,4.35-7.67,8.75-11.75,12.89-2.19,2.21-2.33,3.33.81,4.48,8.2,3,16.13,6.66,24.05,10.35,7.67,3.58,8.25,3.24,12.21-4.44a9.42,9.42,0,0,1,2.18-2.69c2.75-2.43.8-5.45.3-7.69s-3.52-.63-5.37-.26a14.59,14.59,0,0,0-3.54,1.66c-1.33.7-2.9,1.44-4.12.46-2.68-2.16-4.41-.73-6.34,1.06-1,.92-1.93,2.17-4.28,2,3.27-3.1,1-4.73-1.16-6.48s-3.06-4.17-1.21-6.5a28.66,28.66,0,0,1,6.76-6.66C138.7,657.48,144,652,151,647.82ZM440.11,283.65a102.27,102.27,0,0,0,18.37-16.72c-1.56.6-2.06.78-2.54,1-1.29.54-2.62,1.93-4,.7s-1-2.95-.62-4.52c.4-1.76.92-3.49,1.4-5.26-1.3-.16-1.8.67-2.41,1.24-11.82,11.18-23.5,22.5-35.51,33.46-3.36,3.08-4.17,6.53-4.59,11.31A67.2,67.2,0,0,0,427.62,291c2.95-3.19,6.26-6.06,9.44-9,.72-.67,1.53-1.63,2.63-1.11C441,281.43,439.18,282.63,440.11,283.65Zm-84.89,14.68c-1.23.84-1.84,1.17-2.36,1.62-12,10.35-24.08,20.57-35.6,31.45a40.53,40.53,0,0,1-7.83,6.17c-2.15,1.19-4.05,5-7.57,1.84-.35-.31-2.48,1.2-3.65,2.06-1,.75-3.61.95-2.37,2.75.88,1.28,2.32,3.39,5.17,1.58,16.93-10.78,34.1-21.17,51-32a65.64,65.64,0,0,0,14.64-12.19,29.69,29.69,0,0,0-4.79,3c-2.39,1.71-4.83,5.19-7.83,2.74C351.3,305.11,354.41,302,355.22,298.33ZM464.53,179.26a7.44,7.44,0,0,1-2.89,4.76q-11,10.59-22,21.09c-1.38,1.31-2.88,2.5-1.8,4.81,1.46,3.13.18,5.65-2.08,7.82s-4.64,4.39-7,6.52A101.4,101.4,0,0,0,413,241.5a29.14,29.14,0,0,0,6.24-4.75c15.16-16.43,32.18-31.23,43.38-51.1a109.54,109.54,0,0,1,12.51-17.26c2.18-2.56,4.62-5.11,5.78-8.75a4.62,4.62,0,0,0-1,.5c-3.41,3.19-4.46,9.51-11.2,8.39-.49-.08-1.21,1.15-1.78,1.8-1.24,1.42-2.46,2.87-3.69,4.3l-14.33,16.53C454.45,188.13,458.09,182.68,464.53,179.26ZM3.84,548.35c-1.74.27-2.28.38-2.83.43-1.63.15-4,1.89-4.67-.09-.71-2.18,2.26-2.05,3.67-2.6a81.79,81.79,0,0,0,28.78-19.2,20.13,20.13,0,0,0,1.55-2c-4.26-2.85.72-4.62,1-7-2.46.3-4.13,1.75-5.92,3C17,526.47,9,532.76.41,538.15c-2.8,1.76-6.79,3.16-7.41,6.88-.66,3.9-.15,8-.15,12.43C-2.92,555.1-.09,552.05,3.84,548.35Zm508-227.93c-4.76,2.19-7.87,6.45-11.72,9.86-1.16,1-2.83,3-3.82,1.08-1.31-2.5-1.95-1.12-2.92-.23q-10.11,9.25-20.2,18.53c-2.16,2-4.38,3.91-6.58,5.86,3.28-.34,5.92-4.72,9.28-.12.59.81,1.81-.42,2.55-1,3.28-2.83,6.33-6,9.84-8.47,3.35-2.4,5.78-6.17,11.05-5.9,2.87.14,4.87-3.67,7.24-5.72.48-.42.24-1.05-.4-1.37-4.22-2.15-1.64-4.51,0-6.54A81.72,81.72,0,0,1,511.81,320.42Zm-319.44,364c-4.09,2.81-7.51,5.27-11.05,7.54-1.66,1.06-3.51,3-5.52,1.84-2.42-1.33.3-3.62-.19-5.59-2.63.45-4.3,2.62-6.63,3.31-2.86.85-5.59,5.34-8.83.49-.12-.18-1.15,0-1.58.32-1.85,1.24-4.09,2-5.64,4.45,4,1.2,7.62,2.25,11.19,3.38,2.94.92,5.89,1.25,8.29,4,1.64,1.92,5.7,3.3,8,1.92s4.46-4.46,4.33-7.44c-.19-4.16,1.78-6.88,4.34-9.54C190.29,687.88,191.72,686.85,192.37,684.38ZM747.22,328.76c9.08-4.18,15.14-11.9,22.13-18.55,4.37-4.15,5.82-8.52,3.85-14.37-1-3-1.62-3.6-4.28-1.66-5.37,3.9-8.15,9.75-11.85,14.92-.42.6-.78,1.33-.28,2,2.33,3.25-.1,5.22-2.11,7C751.26,321,748.11,324.06,747.22,328.76ZM78.65,630.23c-4.4.41-6.89,3.23-10,3.81-9,1.66-12.75,8.75-17,15.46C50,652,50.78,653.06,53,654.66c5.26,3.78,10,4.43,15.14-.26,2.11-1.94,4.86-3.17,7.16-4.92s4.11-3.54,6.15-5.33a117.2,117.2,0,0,0-14.93,6.52c-1.72.83-4.19,1.38-5.25-.09-1.3-1.79-.46-4.27,1.13-5.93,2.09-2.19,4.42-4.17,6.65-6.22C71.88,635.82,75.72,634.4,78.65,630.23ZM729.3,485.37c11.61-4.71,22.59-10.38,31.17-19.79.75-.83,1.14-2.1,2.47-2.3,6.51-1,10.07-6.5,15.86-9.63-1.76-.93-2.7-.78-3.63-.31a224.23,224.23,0,0,1-24,10c-4.77,1.73-9.44,3.74-14.12,5.72-.9.38-2.63.35-2,2.17.58,1.62,1.72,2.25,3.42,1.52,2-.85,4-1.78,6-2.5,1.42-.49,3.33-1.56,4.22.43s-1,2.78-2.31,3.65ZM45.46,516.84c16.48-10.6,35-18.65,45.61-37.4-4,1.89-6,5.46-9.33,7.55-8,5.05-15.81,10.37-23.8,15.42C52.42,505.89,46.41,508.78,45.46,516.84ZM423.37,247.7c22.36-15.25,30.75-23.09,48.22-43.86,1.47-1.74,2.84-4.05,5.47-3.9,3.79.21,5-3,7.27-4.85,2.65-2.15,3.22-4.37.73-7-.25-.27.43-1.09-.56-1.45-3.06,2.75-6.19,5.54-9.29,8.36-.85.78-1.87,1.56-1.72,2.88.26,2.23-1.23,3.47-2.59,4.76q-9.78,9.33-19.6,18.6ZM533.62,95.15c3.2,3.28,2.07,6.34.86,9.17s-2.91,5.63-4.87,9.33c8.87-5.84,10.24-15.32,16.2-22.35-2.4-.15-2.95,1.28-4,1.94-1.21.78-2.41,3.16-3.85,1.38-1.24-1.54,1-2.7,2.07-3.72,2.94-2.69,6.57-4.6,9.67-8.52-5,0-9.33-2.21-13.19,1.08-3.47,3-5.39,7.11-7.81,10.9-2.79,4.4,2.72,7.84.38,12C532.56,103.43,532.69,99.41,533.62,95.15ZM450,242.17a19.78,19.78,0,0,0,9.32-4.68,134.19,134.19,0,0,0,28.48-33.25,6.48,6.48,0,0,0,.39-7C475,212.32,464.28,228.72,450,242.17ZM96.32,580c11.23-10.06,24.44-17,31.45-30.85-2.46-.4-4.53,2.54-5.72.73-3-4.58-4.6-.6-5.75.94A125.47,125.47,0,0,1,103,566.25c-.69.68-2,1.63-1.21,2.5,3.12,3.39-.38,4.78-1.84,6.75C98.91,576.83,97.21,577.58,96.32,580ZM138.81,476.8c5.39,1.46,8.43-.45,11.28-3.19q6.6-6.32,13.41-12.41c6.48-5.78,9.39-13.84,13.65-21,.35-.59.44-1.39-1.07-2.74C166.23,452.65,152.86,464.55,138.81,476.8ZM483.68,248.47c-19.06,18.56-36.82,38.32-56.27,56.41C450.24,290.11,467.73,270,483.68,248.47ZM473,384.58a2.94,2.94,0,0,0,3.05-.6c6.42-5,12.62-10.27,19.3-14.87s11.8-11.56,20.22-13.55a1.5,1.5,0,0,0,1.09-1.68c-.09-2.22,1.56-3.31,2.88-4.62,2-1.95,4-3.86,5.82-5.88s3.52-4.08,5.27-6.13C513,354.81,489.44,365.13,473,384.58ZM730.24,508.07c-17.63,15.05-37.2,27.4-57,39.42,1.89.78,3.07-.13,4.27-.79,8.52-4.71,17-9.38,25.5-14.19C713.77,526.37,724.93,520.62,730.24,508.07ZM93.86,483.79c7.59-3.67,14.37-8.53,21.17-13.33,9.82-6.94,20.17-13.42,24.88-26ZM-6.85,289.31c-1.14,8.24-.77,15.24,5.57,20.57,2.88,2.41,5.57,5.06,8.48,7.43a4,4,0,0,0,5.55-.51c1.22-1.42-1.1-2.29-2-3.2A115.15,115.15,0,0,1,1.16,303C-1.94,298.93-3.44,294-6.85,289.31Zm764,68c1.9-1.14,3-2.36,4.29-2.48,9.36-.88,14.7-8,21.15-13.39,1.78-1.49,3.08-3.05,1.27-5.5-2-2.65-3.77-.87-5.67,0-3.22,1.4-4.42,4.81-6.91,7C766.42,347.14,762.19,352,757.11,357.29Zm-251.67,104c-4.85,2.59-42.36,30.17-44.72,33.19a44.48,44.48,0,0,0,11.56-6.13c10.26-7.31,20.43-14.75,31.41-20.95C506.68,465.68,508,464.19,505.44,461.25ZM545,229.47c-4.76,2.83-8.4,5.49-11.58,10-7.34,10.36-17.83,18-27,26.73-4.68,4.47-8.6,9.55-12.78,14.43C500.87,276.58,540.67,236.85,545,229.47Zm146.7,283.89c6.17,1.09,10.62-1.78,15.41-3.73,6.47-2.63,9.26-9.48,15.33-12.56,4.16-2.11,8-4.92,11.93-7.42C726.92,491.71,697.65,508.25,691.72,513.36ZM517.24,124c5.52-5.8,10.28-11.3,9.92-19.48,0-.71.24-1.55-.45-2-1-.63-1.62.27-2.13.91-2.35,3-4.6,6-7,8.9-4.29,5.32-8.62,10.6-12.94,15.9,3.05-1.31,4.89-3.7,6.81-6C514,119.06,515.63,119.44,517.24,124ZM7,529l-.44-.89c-1.95.46-3.88,1-5.85,1.37-1.12.21-2.58.37-2.91-1.09s1.1-1.47,2-1.84c1.74-.72,3.54-1.34,5.22-2.17.89-.44,2.7-.58,1.93-2.16A2.44,2.44,0,0,0,4,521,66.38,66.38,0,0,1-5.52,524c-1.26.32-1.67,1.51-1.68,2.77,0,2.9,0,5.81,0,8.71,0,1.85.8,2.48,2.41,1.42C-.84,534.32,3.08,531.64,7,529ZM412.12,363.23c-9.65,3.73-30.49,20.37-32.59,25.53C393.53,384.86,400.92,372.43,412.12,363.23ZM541.38,839.16c4.93,11.17,21.37,24.69,28.89,23.85ZM10.25,683.31c12.6,13.83,27.41,25.15,42.15,36.55C39,706.92,26,693.58,10.25,683.31ZM510.36,249.15l38.36-34.42C532.27,222.11,521.94,236.25,510.36,249.15ZM358,294.8c13.86-10.14,27.17-20.95,38.19-34.26A344.42,344.42,0,0,0,358,294.8Zm393.23,4c2,0,2.81-2.47,4.73-2,3.75.81,5.61-1.58,7.54-4,1.43-1.78,2.52-4,5.3-4.05.67,0,1.8-.92,1.33-1.32a22,22,0,0,1-5-6.36c-.39-.69-1.31.19-1.66.81A119.2,119.2,0,0,1,751.23,298.78ZM517.38,233.23c-8,4.78-41.7,37.84-42.71,42.17C489.2,261,503.9,247.75,517.38,233.23ZM73.72,478c9.43-4.15,18.82-8.32,25.63-16.49,1-1.22,1.75-2.62.44-3.86s-2.47.25-3.3,1c-5.64,5.26-11.23,10.54-17.83,14.64C76.76,474.52,74.53,475.42,73.72,478Zm605.75,76.12-15.06,8.45c-3.78,2.12-7.57,4.23-11.34,6.37a2.39,2.39,0,0,0-1.13,3.33c.87,1.74,2,.4,2.86-.1q10.83-6.39,21.6-12.9C678,558.34,679.72,557.36,679.47,554.15ZM117.85,602.28c9.07-7.6,21.06-12.26,25.44-25C133.05,584,125.59,593.29,117.85,602.28ZM332.28,330l-29.42,17.36c3.09.57,4.84,2.85,7.61.75,6-4.56,12.24-8.79,18.37-13.18C330.31,333.88,332.18,333.08,332.28,330Zm182.19,59.63c-1.06-.72-2.49.1-3.49-1.26-1.62-2.22-3.36,0-3.16,1.05,1,5-2.91,6.85-5.64,9.36-4.33,4-8.82,7.78-13.25,11.66l.87,1C497.81,404.13,509,400.71,514.47,389.64Zm-35.35-.84.34.59c4.52-3.08,9.26-5.88,13.5-9.3,5.72-4.62,13.23-6.61,18-12.55.76-.94,2.64-1.7,1.47-3.11s-2.64-.14-3.76.75Zm27.93,51.08c-13.41,8.07-25.7,17.47-36.17,29.12C483.43,459.89,494.89,449.43,507.05,439.88ZM456,320.84l.94.83a26.31,26.31,0,0,0,2.57-2.12c5.11-5.36,10.08-10.86,15.31-16.12,2.34-2.35,2.9-4.63,1.48-7.48-4.69,3.42-7.05,8.44-10.19,12.87C463.09,313.09,458.11,315.89,456,320.84ZM72.43,512c-6.37,3.93-12.64,7.82-18.94,11.66-1.39.84-2.41,2-1.78,3.53.85,2.1,2.19.25,3.19,0C63.18,525,69,519.87,72.43,512ZM47.52,538.57C59,537.21,68.4,534.4,74.26,524.76,65.21,528.24,57,533.31,47.52,538.57Zm145.74,10.9c-4.77,4.3-7.57,9.76-11.14,14.57-1.12,1.52,0,2,1.55,1.75C191.11,564.6,195.41,557.67,193.26,549.47Zm-40.48,95.61c17.8-11.12,25.45-18.18,26.56-24.17C169.56,628.36,161.61,637.24,152.78,645.08Zm587.51-203.7c-12.71,2.38-23.65,8.94-34.83,15C717.29,451.92,729.49,448.39,740.29,441.38ZM160,388c-4.91,4.68-9.28,8.69-13.45,12.9a35.62,35.62,0,0,0-3.8,5.3A1.88,1.88,0,0,0,143,409a1.23,1.23,0,0,0,1.9-.32c1.68-4.36,6.83-5.46,8.78-9.66C155.32,395.43,157.55,392.17,160,388ZM123.44,518.79c-12.68,3.35-18.17,13.55-25.87,21.13C106.05,533.25,115.32,527.51,123.44,518.79Zm407.38-381.3c-7,3.5-17.55,15.24-21.16,23C519.2,155.47,524,145.57,530.82,137.49ZM738.37,306c9.64-8.05,18.34-17,25.12-27.64-5,2.44-8.43,6.78-12.59,10.22a1.85,1.85,0,0,0-.65,1.49c1.19,3.46-1.57,5-3.34,6.93C744.13,300.06,740.27,302.05,738.37,306ZM499.68,294.11c-.7-.2-1.1-.43-1.21-.33-5,4.54-10.08,9.07-15,13.69-1.33,1.23-.66,3,.13,4,1.09,1.34,1.84-.5,2.73-1C492.81,306.86,494.63,299.39,499.68,294.11ZM88.78,540.56l-24.68,22C71.77,561.64,83.3,549.71,88.78,540.56Zm266.53-316.3c-4.48,5.84-7.08,11.5-10.27,16.8S337.41,250.7,335,257.6C347.1,244.27,352.43,235.59,355.31,224.26Zm123.26,60.17c-5.1,4.66-10.06,9.17-15,13.74-1.11,1-.55,2.14.3,3.06,1.19,1.29,2.14.31,2.91-.5,3.8-4,7.58-8,11.26-12.1A3.15,3.15,0,0,0,478.57,284.43ZM-12.53,699.49c1.8-11,4.27-21.94,1.71-33.16A181.77,181.77,0,0,0-12.53,699.49ZM699,343.58c9.49-7.13,19.5-13.69,27.47-22.72C717.21,328.36,706.08,333.48,699,343.58Zm-399.28-25c-5.54,1.58-10.8,3.59-16.4,4.39-1.3.18-2.89.3-2,2.3.65,1.51,1.14,3.69,3.59,2.53C290.12,325.26,295.42,322.7,299.67,318.54ZM36.87,606.29a45.26,45.26,0,0,0,12.71-9.63c.59-.61,1.33-1.41.75-2.26s-1.54-.2-2.33,0C42.1,596.16,38,599.65,36.87,606.29Z" transform="translate(33.34 14.67)"/><path d="M966.87,765.3a163.82,163.82,0,0,0-22.49-6.86c-2.62-.57-4.09-2.4-5.32-4.18-2.63-3.77-5.15-5.81-10.41-4.77-4.11.82-8.31-2.11-12.21-3.83-5.63-2.47-11.53-3.46-17.4-4.8a60.06,60.06,0,0,1-7.93-2.2c-12.29-4.64-25.07-6.75-38-5.19-9.73,1.17-18-2.3-26.37-5.79-4.63-1.93-9.52-2.51-14.2-4-2.62-.85-4.2,2.05-6.9,2a204.11,204.11,0,0,1-21.29-1.53c-39.52-4.63-77,2.88-112.65,19.68-5,2.39-10.13,3.78-15.22,5.57a33.77,33.77,0,0,0-4.88,1.89c-6.33,3.44-15.06,4.16-15.8,14.67-1.95-6.28-4.59-3.23-7.08-1.48-8.91,6.29-15.25,14.65-19.84,24.45a90.82,90.82,0,0,1-9.7,16.54c-3.7,4.87-1.66,10.47-1.66,15.74,0,2.44,2.76,2.47,4.85,2.58,3,.17,5.76.68,4.8,4.82-.3,1.29.51,1.91,1.47,2.34,20.13,8.86,39,20.12,58.59,30.17-7-5.16-13.09-11.42-19.75-17-4.59-3.84-8.79-8-11.65-13.41a10.35,10.35,0,0,1-1.23-2.77c-.4-2-.57-4.42,1.65-5.34s2.56,1.7,3.88,3.22c0-4.51-.16-8.68,0-12.84.3-6.31,4.89-10.5,10.43-9.78.87.11,1.86.2,2.06,1.24.16.84-.64,1.24-1.25,1.61-2.33,1.41-5.13,2.34-5.47,5.68-.51,4.91-2.12,10.72.77,14.48,6.51,8.47,12.55,17.83,23.32,22a35.81,35.81,0,0,1,11.87,6.89c4.34,3.94,9.81,6.8,16.65,6.18-2.69,3.34-1.17,4.73,1.81,5.5-5.11,2.79-10.91.63-16.25,2.33,1,2,2.93,1.82,4.07,2.79,3.08,2.61,7.36-.94,10.78,3,2.68,3.08,8.21,2.1,12.48,2.88s8.35,1.17,12.51,1.8c16.11,2.44,32.33,3.84,48.57,5,5.34.37,10.73,0,16,.94,23.18,4,46.61,3.84,69.9,2.56a431.22,431.22,0,0,0,57.08-7c5.23-1,10.58-1.3,15.82-2.49-4.89,3.76-11.64,3.23-17.22,7.75l42-7.48c3.57-.64,7-1.9,10.73-1.74v17.46c-3.57.48-7,1.62-10.72,1.5-2.08-.06-3.2,1.12-3.39,3.56-1.2-2-2.54-2.93-4.66-2.59-9.15,1.47-18.57.52-27.59,2.1-11.07,1.95-22.2,2.63-33.31,3.82-22.84,2.43-45.57,6-68.65,5.56-4-.08-7.94,1.26-12.07,1.38A187.09,187.09,0,0,1,775.25,908c-13.11-1.81-26.24-3.59-39.22-6.37-14.91-3.19-30.06-4.73-45.23-6.19-10.69-1-21.33-2.6-32-3.87-8.54-1-15.72-5.81-23.68-8.44-1-.32-1.79-1.09-2.75-1.28-8.33-1.66-13.73-8.2-20.64-12.2-2.54-1.47-1.52-4.09-2.68-5.64a46.33,46.33,0,0,0-8.64-9.15c-7.44-5.67-13.16-12.38-15.7-21.56a13,13,0,0,0-2.73-4.4,49,49,0,0,1-8.83-16.48c-.58-1.91-.42-3,1.63-4.57,3-2.31,3.71-6.58,4.67-10.19,1.16-4.33,2-8.71,3.74-12.88.88-2.1,2.52-4.24,0-6.66-1.13-1.07.15-2.76,1.15-3.84a61.62,61.62,0,0,1,6.38-6.54c6.16-5,10.7-11.84,18.15-15.25.52-.24,1.34-.61,1.37-1,.6-6.9,6.76-7.21,11.18-8.59,5.24-1.63,9.87-3.59,14.14-7.17,7.53-6.31,16.77-9.66,25.81-13.22,3.49-1.38,6.89-3.64,10.48-4,10.25-1,19.52-5.44,29.44-7.41,1.79-.36,4.45-1.61,5.63,1.55a3.54,3.54,0,0,0,2.05-.28c9.52-5,19.65-1.8,29.51-2.2,4.62-.19,9.86.86,13.72-1,4.43-2.1,8.61-2,13-2.14,9-.23,18-.24,26.93-.34a5,5,0,0,0,2.61-.51l-5.36-.78c34.53.26,67.82,10.33,102.8,12.71-2.7-2.64-6.39-2.27-8.29-5.21,3.4,1,6.88,1.9,10.19,3.17q26.85,10.36,54.42,18.52c6.37,1.9,12.29,5.27,18.41,8Z" transform="translate(33.34 14.67)"/><path d="M966.87,781c-3.65-1.19-7.21-1.9-10.93.14-2.1,1.14-4.3-.45-6.22-1.13a183,183,0,0,1-24.49-10.14c-7.77-4.08-16.3-5-24.68-6.6-13.69-2.64-27.51-4.44-41.34-6.12-1.8-.22-3.52-.24-3.76-2.68-.12-1.26-1.45-1.21-2.34-1.62-12.27-5.61-25.38-4.82-38.35-5-2.58,0-5.29.73-6.42-2.83-.38-1.18-2.09-.87-3.18-.84-14.61.5-29.23.93-43.79,2.3-1.34.13-2.89-.29-1.46,2.07a2.26,2.26,0,0,1-2,3.46c-2.61,0-5,.91-7.72.76-8.19-.44-16.28-.7-24.16,3.15-4.86,2.37-10.6,2.92-15.94,4.32a36.4,36.4,0,0,0-14.9,7.34c-3.65,3.08-9.18,4.07-14,5.54-2.68.82-5.09,2.13-7.64,3.14-.95.38-1.94.87-1.78,2.16.76,6.27-3.91,8.42-8.31,10.23-6.5,2.67-13.31,5.58-17.72,10.63-3.6,4.12-8.44,6.4-11.77,10.54-5.69,7.06-3,14.47-1.07,21.87.11.41.36.78.51,1.18,0,.11-.08.27-.21.66-2.06.19-3.08-1.18-3.66-2.84-.86-2.46-1.56-5-2.23-7.51-.31-1.13-.21-1.14-1.82-1.17-1.15,0-1.31-1-1.6-1.78-2.5-6.45-2.74-12.89,1.41-18.69,6.08-8.49,13.46-15.59,23.39-19.57a11,11,0,0,0,1.93-1c.87-.54,2-1.2,1.32-2.35s-1.75-.36-2.6.16c-1.82,1.11-3.27,2.94-6.08,3a5.67,5.67,0,0,1,3.47-5.42c9-4.21,16.21-11.57,25.68-15.08a310.52,310.52,0,0,1,49.06-13.52c15.81-3.07,31.77-5.43,47.31-9.83A74.49,74.49,0,0,1,779,735.71c2.62-.34,5.63-1.17,7.15,2.36.49,1.14,1.74.86,2.73.85,8.56,0,17.13,0,25.69-.18,2.21,0,4.64.15,6.48-1.88.82-.92,2.17-.36,3.31,0,18.08,5.65,36.78,8.36,55.36,11.64,5.57,1,11.11,2.18,16.64,3.42,1.54.34,3.2,1.08,3.42,3s-2,1.73-3.12,3.21c7,1,13.57,3.58,20.62,2.88,2-.2,3.67.75,5.41,1.44,10.67,4.23,21.29,8.6,32.2,12.21,3.91,1.29,8,1.61,12,2Z" transform="translate(33.34 14.67)"/><path d="M966.87,836c-5.51,5.65-13.45,7-19.81,11.26-3.71,2.47-8,4-12.07,6-2.63,1.29-4.73,2.76-8.35,1.32-3-1.19-6.48,1.87-9.65,3.22q-12.43,5.29-25.23,9.58a11.08,11.08,0,0,1-2.94.76c-1.9.11-4.71,1.37-5.25-1.28s2.66-1.84,4.13-2.69c1.84-1.07,5.66-.58,4.91-3.73-.92-3.91-4-1.12-6.15-.82-8.44,1.24-16.62,3.91-25.15,4.71a35.05,35.05,0,0,1-4.76.42c-2-.08-4.94,0-5.1-2.18-.21-3,2.88-1.94,4.7-2.15,15.8-1.82,31.39-5,46.06-11,7.51-3.06,13.91-8.86,20.84-13.38a38.72,38.72,0,0,1,10.32-4.56c2.65-.77,5.56-1.44,7.73,1.07,2,2.29-1.19,3.86-1.21,6.82L961.47,827c-.55-2.11-2.73-.8-3.3-2.79,2.84-.87,5.65-1.66,8.7-1.29Z" transform="translate(33.34 14.67)"/><path d="M966.87,774.91A184.52,184.52,0,0,0,913,759.65c-.93-.11-2.31.38-2.42-1.11s1.24-1.83,2.4-2a50,50,0,0,1,14.75,1.09,179,179,0,0,1,39.1,12Z" transform="translate(33.34 14.67)"/><path d="M632.4,636.67c22.82-16.58,44.65-34.39,67.16-52.84C697.64,593.6,646.55,633.49,632.4,636.67Z" transform="translate(33.34 14.67)"/><path d="M783.91,952.58c1.56-1.12,3.06-.68,4.45-.68q78.72,0,157.43,0c5.92,0,5.93,0,5.93-6,0-4.74,0-9.47,0-14.21h1.36c0,6.55,0,13.1,0,19.65a1.88,1.88,0,0,1-2,1.92c-1.16.08-2.32.13-3.48.13q-80,0-160,0C786.46,953.3,785.25,953.63,783.91,952.58Z" transform="translate(33.34 14.67)"/><path d="M89.52,272.45c2,.84,4,1.64,5.94,2.53s4.27,1.89,2.7,4.37c-1.43,2.27-1.33,6.93-6.61,4.65-10.25-4.43-20.72-8.34-31-12.58-6.85-2.81-13.65-5.72-20.7-8-1-.31-1.83-.86-2.77-1.24-2.14-.88-3.45-2.31-2.63-4.72.89-2.62,3.17-1.71,4.84-1.36,7.25,1.48,14.44,3.31,21.7,4.78,13.38,2.7,26.8,5.24,40.39,6.68a19.87,19.87,0,0,0,9.75-.91c3.18-1.28,6.58-1.19,9.92-.88,17.39,1.62,34.84,1.68,52.29,1.73a197.14,197.14,0,0,0,36-3.59c.86-.15,1.7-.41,2.56-.52,1.18-.15,2.52-.27,2.74,1.31.16,1.24-.93,1.79-1.94,2-6.82,1.43-13.53,4.23-20.52,3.82-12.25-.71-24.29,1.3-36.44,1.68a204.46,204.46,0,0,1-25.25-.46c-4.86-.46-9.12.89-13.66,1.61C107.67,274.79,98.7,272.53,89.52,272.45Z" transform="translate(33.34 14.67)"/><path d="M55.22,175.45c-19.78-6.74-37.63-15.62-45.77-37,1.87-.78,2.21,0,2.52.56,7.52,14.57,20.17,22.92,34.88,28.7,19.74,7.76,40.15,8.53,61,6.06,25.31-3,49.6-9.77,73.4-18.6,1.92-.72,5-2.79,5.87-.87,1,2.32-2.47,3.46-4.38,4.33C154.39,171.45,125.19,181,93.63,180.2c-18.58-.48-37.21-.85-55.68-3.38a10.91,10.91,0,0,1-1.71-.29c-.79-.24-2-.32-1.79-1.47s1.3-1,2.11-1c5.8.39,11.59.83,17.39,1.26Z" transform="translate(33.34 14.67)"/><path d="M326.25,97.71c4.35,7.22,6,14.46,9.55,20.93-3.71-6.94-.47-15.53-5.58-22.16-1.43-1.85-1.64-4.61-5.11-4.37-1.8.13-1.72-2-1.82-3.42-.12-1.7-.51-3.59,1.32-4.74,1.45-.91,2.79-.34,4,.56,2.66,1.94,4.24,4.72,5.89,7.47a67.3,67.3,0,0,1,7.62,16.55c.85,3,1.55,6-.13,9.29-1,2-.33,4.57.22,6.84a42.32,42.32,0,0,1,1.22,10.8c0,1.9,1,4.47-1.65,5.3-3.17,1-2.94-2.37-4.05-4l-1.22.16c0,6.17,0,12.33,0,18.5,0,1.87.11,4.34-2.57,4.13-2-.15-4.55.1-4.93-3.63-.73-7-1.19-14.2-3.68-20.95-.6-1.62.1-3.1.13-4.65.06-3.22.07-6.36,4.13-2.17,1.44,1.48,2.21.66,2.46-1.12a13.21,13.21,0,0,0-.87-7.27c-2.62-5.82-2.9-12.28-5.16-18.2C325.73,100.78,326.11,99.74,326.25,97.71Z" transform="translate(33.34 14.67)"/><path d="M329.77,178.2c2.45.22,3.16-4.21,5.68-1.94,2.31,2.06.73,4.67-.12,6.9a130.5,130.5,0,0,1-5.85,14c-2.13,4.08-6.35,5.29-10.71,5.66a1.77,1.77,0,0,1-1.4-.69c-.36-.58.24-1.06.69-1.4a5.58,5.58,0,0,1,1.48-.91c4.74-1.61,7.07-5.26,8.54-9.76.66-2,1.67-4,1.95-6.44-1.68,2-3.3,4.05-5.09,6-1,1-1.57,3.64-3.47,2.19-1.67-1.27-.06-2.92,1-4,3.42-3.4,4.21-7.85,5.1-12.27a25.47,25.47,0,0,0,0-3.52c-3.77,4.73-8.76,6-10.67,11.81-5.21,15.94-16,28.21-28.68,38.75-13.94,11.6-29.6,20.55-45.91,28.38-1.12.54-2.23,1.43-4.7.5,5.59-3.55,10.57-6.81,15.65-9.93,14.51-8.92,28.83-18.07,40.74-30.48a108.28,108.28,0,0,0,15.72-21.38c2.7-4.71,1.84-9.9,2.1-14.94.11-2.16-.23-4.38.82-6.42.46-.91.94-1.91,2.11-2,1.39-.11,1.38,1.13,1.82,2a22.46,22.46,0,0,1,2.69,7.79,23.12,23.12,0,0,0,5.65-5.17c1-1.32,2.11-2.78,3.91-2s1.28,2.68,1.2,4.24S329.88,176.48,329.77,178.2Z" transform="translate(33.34 14.67)"/><path d="M120.42,58c2.23-3,5.44-4.84,7.08-8.19.49-1,1.12-2.4,2.53-1.74s.56,2,.35,3.1a13.39,13.39,0,0,0-.51,3.39c.56,6.21-2.26,11.15-6.45,15.1-7.23,6.82-15.2,12.86-25.24,14.75-7.86,1.48-15.88.45-23.82-.1-1-.06-2.39-.12-2.39-1.39,0-1.69,1.66-1.37,2.69-1.38,10.29-.17,19.61-3.64,28.68-8.15,2.71-1.35,4.6-2.87,4.25-6.24-.28-2.78,1.34-5,2.68-7.24a40.47,40.47,0,0,0,4.4-8.46c.46-1.41,1.11-3.31,3.29-2.71,1.89.52,1.44,2.22,1.49,3.65C119.51,54.2,118.77,56.13,120.42,58Z" transform="translate(33.34 14.67)"/><path d="M0,202.2c5.34,1.74,10.73,3.34,16,5.25,26.3,9.5,53.52,14.14,81.31,16.64a297.37,297.37,0,0,0,46.42.74c3.89-.25,7.95-.27,11.89,1.92C123.39,237,17.12,220.74,0,202.2Z" transform="translate(33.34 14.67)"/><path d="M301.1,47.05c1.42,2.94,2,5.74-.22,8.32-1,1.13-2.27,1.9-2.83-.26-2-7.65-8.7-10.4-14.72-13C275.47,38.71,268,34.44,260,31.45c-.65-.24-1.56-.75-1.68-1.29a12,12,0,0,0-7-8.58c-.4-.2-.57-1.36-.44-2,.21-1,1.2-1.22,2.1-1.06a19.5,19.5,0,0,1,3.35.9c16.3,6.31,31.82,14.29,47.39,22.16,1.26.64,3.1,1.29,2.7,3C305.83,46.91,303.32,46.24,301.1,47.05Z" transform="translate(33.34 14.67)"/><path d="M32.15,188.89c-1.32-1.62-2.91-1.42-4.22-1.85a3.12,3.12,0,0,1-2.33-4c.48-1.88,2.18-1.71,3.61-1.35,4.64,1.18,9.29,2.35,13.88,3.74,9.75,3,19.79,4.56,29.76,6.54,1.24.25,3.38,0,3.28,2-.08,1.51-1.93,1.63-3.12,1.92-2,.47-3.53.9-4.77,2.92-1.15,1.87-3.64,1.37-5.66.94C46,196.2,29.32,193.37,13,188.85a21.87,21.87,0,0,1-2.5-.77c-1.26-.5-2.54-1.16-2-2.83.51-1.48,1.81-1.17,3-.9,5.8,1.34,11.59,2.71,17.39,4C29.82,188.61,30.81,188.69,32.15,188.89Z" transform="translate(33.34 14.67)"/><path d="M290.47,262.35a133.86,133.86,0,0,0,25.29-15.78c.57-.45,1.12-.93,1.7-1.37.9-.68,1.89-.94,2.71,0s.39,1.94-.35,2.74c-1.38,1.49-2.74,3-4.25,4.38a152.38,152.38,0,0,1-38,25.07c.77-2.4,2.78-3.67,4.65-5s4.13-1.82,5.24-4a119.74,119.74,0,0,0-20.2,11.47c-1.91,1.33-4.84,4.63-5.92,3-1.57-2.45,2.37-4,4.26-5.42,13.1-10.1,26.28-20.09,38.22-31.6.81-.78,1.64-2,2.89-.89s.46,2.41-.42,3.43a63.82,63.82,0,0,1-9.54,8.9C294.6,258.87,292.56,260.64,290.47,262.35Z" transform="translate(33.34 14.67)"/><path d="M235.63,46c-2.82-2.51-3.73-6.08-5.15-9.26a22.47,22.47,0,0,0-11.23-11.67,165.22,165.22,0,0,1-23.73-13.58c-1-.7-2.47-.79-3.7-1.2-1.44-.48-2.94-1.16-2.61-2.95.38-2,2.11-1.62,3.54-1.4,5.11.79,9.67,3.17,14.31,5.2s9.05,4.64,13.67,6.75C232.86,23.51,234.86,34.43,235.63,46Z" transform="translate(33.34 14.67)"/><path d="M48.55,120.13c-1.65.81-2.79-.44-4-1-8.58-4.34-16.93-9.33-24-15.62A32.74,32.74,0,0,1,9,80.77c-.29-5-2.38-9.6-1.93-14.62.17-1.88,0-3.78.25-5.65.16-1.49.78-3,2.5-3.14,2-.16,3,1.46,4.07,2.85s.68,2.06-.92,2.89c-1.42.75-1.07,2.68-.8,4,.82,4.12,1.09,8.34,2.53,12.35a42.09,42.09,0,0,1,2.37,11,16.17,16.17,0,0,0,6.47,11.88,243.86,243.86,0,0,0,22,14.93C46.69,118,48.35,118.25,48.55,120.13Z" transform="translate(33.34 14.67)"/><path d="M14.49,102.64,18,106.75c12.22,14.33,28.24,17.82,46.1,16.33,9.75-.81,19.08-3.33,28.4-6-14.45,11.25-31.2,10.39-47.84,8.22C30.74,123.5,21.05,114.9,14.49,102.64Z" transform="translate(33.34 14.67)"/><path d="M8.71,34.88c-.34.64-.4,1-.61,1.12-6.62,3.18-5.57,9-4.95,14.59C3.87,57.06,4.7,63.52,5.42,70c.14,1.24.56,3-1,3.43-1.7.46-2.6-1.34-2.93-2.6A76.76,76.76,0,0,1-1,58.52c-.44-5-2.78-9.81-1.9-15C-1.88,37.59,2,34.6,8.71,34.88Z" transform="translate(33.34 14.67)"/><path d="M119.76,235.89a1.71,1.71,0,0,1,1.71-1.48c17.11-2.44,34-6.33,51.23-7.93.58-.06,1.16-.13,1.74-.16,1.1,0,2.28.35,2.41,1.37.16,1.24-1.19,1.5-2.16,1.66-5.87,1-11.74,2.05-17.64,2.84-11,1.45-21.91,2.76-32.88,4.06C122.79,236.41,121.3,236.88,119.76,235.89Z" transform="translate(33.34 14.67)"/><path d="M298.82,248.39c-2.31-1.41-3,.17-3.86.92-3.47,2.85-6.88,5.77-10.31,8.68a6.82,6.82,0,0,1-3.78,2,2.34,2.34,0,0,1-2.58-1.21c-.5-1.06.51-1.51,1.14-2.05,7.61-6.49,15.17-13,22.16-20.21.66-.68,1.41-1.8,2.51-.95.8.62.22,1.68,0,2.44-.94,2.84-2,5.66-3,8.46C300.55,247.7,299.76,248.68,298.82,248.39Z" transform="translate(33.34 14.67)"/><path d="M92.22,145.57c4.15-2.29,7.42-4.62,11.06-5.94a59,59,0,0,0,8.69-4.5c.63-.36,1.26-.95,1.91-1,2.89-.12,6.44-.14,7.56,2.66s-2.55,2.83-4.23,3.71a51.59,51.59,0,0,1-18.65,5.57A12.82,12.82,0,0,1,92.22,145.57Z" transform="translate(33.34 14.67)"/><path d="M86.29,296.48c14-4,26.95,3.61,40.62,3.23C113.17,301.12,99.56,301.09,86.29,296.48Z" transform="translate(33.34 14.67)"/><path d="M228.89,138.46c.22-3.07,2-4.17,3-5.61,4.69-6.67,2.39-14,2.32-21.1,0-1.71-2.06-4.65.92-5,2.68-.28,2.75,2.85,2.8,5,.11,4.2.16,8.4.06,12.6C237.82,130.61,233.86,134.34,228.89,138.46Z" transform="translate(33.34 14.67)"/><path d="M249.6,196.34c1.2,2.28-.06,3.41-.71,4.58-1.48,2.65-3.25,5-2.67,8.47a3.73,3.73,0,0,1-2.89,4.34c-2.11.27-2.9-1.89-2.8-3.58.13-2.11-1.57-1.73-2.48-2.43-1.2-.92-2.78-2.65-.67-3.18C242.44,203.29,246.1,200.15,249.6,196.34Z" transform="translate(33.34 14.67)"/><path d="M180.47,9.91c6,1,11.08,5.07,15.81,9.69a1.52,1.52,0,0,1,.35,2,1.42,1.42,0,0,1-1.94.42,19,19,0,0,1-3.59-2.39,34.36,34.36,0,0,0-9.07-6,5.4,5.4,0,0,0-3.37-.55c-1,.21-.92,2.66-2.5,1.34a2.64,2.64,0,0,1-.6-2.85c.52-1.56,1.91-1.59,3.23-1.66Z" transform="translate(33.34 14.67)"/><path d="M263.38,289.57c-1.56-.09-2.83.06-3.26-1-.56-1.4,1-1.65,1.74-2,6-2.71,12-5.33,18-7.93,1.32-.57,3.13-1.35,3.76.46.53,1.53-1.51,1.81-2.56,2.34q-7,3.57-14.07,6.93A26.25,26.25,0,0,1,263.38,289.57Z" transform="translate(33.34 14.67)"/><path d="M875.05,783.94c6.83,2.32,13.66,4.62,20.47,7,.89.31,2.36.23,2.31,1.56s-1.51,1.61-2.62,1.76c-4.35.59-8.42-1.09-12.33-2.34a105,105,0,0,0-31.29-4.79c-12.3-.12-24.61-1.23-36.86.75a3.36,3.36,0,0,1-1.3,0c-14.56-3.57-28.32,1.93-42.4,3.76-5,.65-9.89,2.42-14.91,2.83-8.12.67-14.82,4.76-21.9,8a137.77,137.77,0,0,0-12.49,6c-9.48,5.54-17.29,12.64-19.91,23.95-.28,1.21-.5,2.38-2,2.31s-1.81-1.29-2.12-2.43c-.19-.7-.6-1.58-.35-2.11,2.62-5.63,1.3-11.57,1.64-17.39.41-7.16,5.32-11.7,10.46-15.9,9.42-7.71,20.07-13.91,32.23-13.85a113.89,113.89,0,0,0,29.09-3.46c18.78-4.79,38-7.07,57.29-8.09a35.65,35.65,0,0,1,5.64.39c1.78.2,3.49.57,4,2.71s-1.68,2.28-3.44,3.75c12.46-.9,24-.1,35.6-.22a191.25,191.25,0,0,1,37.67,3.72,19.68,19.68,0,0,1,5.31,1.89c1.58.82,3,2.16,1.9,4.22-1,1.84-2.55,1.26-4.18.75C899,785.11,887,784.85,875.05,783.94Z" transform="translate(33.34 14.67)"/><path d="M911.09,813.89l-7.35.37c2.06-3.37,11-6.64,14.14-5.27,3.81,1.65,1.9,4.09.4,6.74,3.87-.64,6.94-2.88,10.79-2.2,1.85.32,3.44-1.93,3.56-3.81.14-2.07-2.11-1.4-3.37-1.81-.77-.26-1.57-.42-3.56-.94,3.24-.63,5.19-1,7.14-1.39,2.14-.43,4.14-.23,5.52,1.63,1.52,2,.35,4-.74,5.63C934,818.29,928.56,822,923,825c-9.42,5.12-19,10.12-29,13.84-6.51,2.41-12.89,6.45-20.42,3.83a2.05,2.05,0,0,0-1.26.22c-12.72,5.41-26.62,5.19-39.85,8.34a263,263,0,0,1-42,6.35c-17.35,1.23-34.83,1-51.5-5.45-2-.78-4.14-1.42-5.71-3.07a2.31,2.31,0,0,1-.53-2.79,2.28,2.28,0,0,1,2.46-1.33q16.82.36,33.62.63c11.3.19,22.61.41,33.91.48,2.68,0,5.43.08,7.34-2.77,1.33-2,4.71-2.25,5.93-1.37,4.76,3.46,10,2.13,14.58,1.29,5.5-1,10.92-2.31,16.55-2.83,7-.64,14.41-2,20-5.45,6.16-3.79,13.82-3.35,19.21-8.82,4.8-4.88,11.68-6.93,17.66-10.2C906,814.8,908.32,816.24,911.09,813.89Z" transform="translate(33.34 14.67)"/><path d="M770.45,824.93c11.69-2.43,22.74-3.58,33.76-4.92,3.74-.46,7.43-1.17,11.23-1,2.61.08,5.24-.06,6.87-2.79a2.14,2.14,0,0,1,3.4-.54c1.34,1,.76,2.33,0,3.49a23.92,23.92,0,0,1-14.92,10.43c-11.13,2.73-22.37,1.87-33.55-.22C774.66,828.84,773.33,826.47,770.45,824.93Z" transform="translate(33.34 14.67)"/><path d="M228.18,759.58c-14.64,2.19-26.32-6.37-39.41-8.51-8.28-1.36-16.37-3.85-24.55-5.84-2.8-.68-5.21-1.94-6-5-.52-2-2.37-1.93-3.7-2.66s-2.49-1.66-2-3.4c.52-2,2-1.93,3.79-1.88,10.53.3,19.87,5.25,29.9,7.51a114,114,0,0,1,19.57,5.95A223.48,223.48,0,0,0,229.05,754c1.77.53,4.29,1.28,3.67,3.52S229.71,759.86,228.18,759.58Z" transform="translate(33.34 14.67)"/><path d="M502.43,876.7c2.5.55,4.56,1.91,6.73,3.08,3.82,2.07,6.8,6.14,12,5.16a2.41,2.41,0,0,1,1.57.64c13.72,10.39,28.93,19,39.87,32.74,1.28,1.61,3.12,2.9,1.18,5.16s-3.54,1.34-5.71.19c-20.39-10.8-37.63-25.94-55.57-40.13a5.94,5.94,0,0,1-2.41-3.54C499.77,878.26,500.29,876.82,502.43,876.7Z" transform="translate(33.34 14.67)"/><path d="M471.13,842.47c-5.16,1-9.61,1.45-13.31-2.51-2.39-2.56-5.7-3.76-8.88-4.41-13.1-2.63-24.85-8.89-37.19-13.53-4.47-1.68-7.64-5.82-12.48-7.53-2.24-.8-3.65-4.49-6.17-6.42-1.43-1.09.35-2.69,2-2.55a29,29,0,0,1,5.93,1.31c8.36,2.53,16.17,6.86,24.49,9.09,11.45,3.08,21.08,9.55,31.6,14.34,3.41,1.55,6.58,3.58,8.07,7.52C466.06,840,469.24,839.91,471.13,842.47Z" transform="translate(33.34 14.67)"/><path d="M285.1,771.69c-2.59-.45-4.87-.8-7.14-1.26-1.17-.24-2.34-.67-2-2.27a2.15,2.15,0,0,1,2.51-1.89,69.47,69.47,0,0,1,7.3,1.22c18.07,4.29,36.12,8.66,54.19,13,3.3.79,6.15,2.55,9.17,3.95,1.16.54,2.63,1,2.32,2.7a3.2,3.2,0,0,1-3.15,2.58,43.34,43.34,0,0,1-9.53-.09c-17.88-3-35.38-7.72-52.93-12.21-1.23-.32-2.65-.53-3.12-2C282.11,773.4,283.76,772.69,285.1,771.69Z" transform="translate(33.34 14.67)"/></svg>