<svg xmlns="http://www.w3.org/2000/svg" viewBox="0 0 384.95 380.93"><defs><style>.cls-1{fill:#4d4d4d;stroke-width:16px;}.cls-1,.cls-2,.cls-3{stroke:#000;stroke-miterlimit:10;}.cls-2{fill:#fff;stroke-width:7px;}.cls-3{font-size:25.03px;stroke-width:0.5px;font-family:PrestigeEliteStd-Bd, Prestige Elite Std;}</style></defs><g id="Layer_2" data-name="Layer 2"><g id="Layer_1-2" data-name="Layer 1"><path class="cls-1" d="M375.8,246.55l-9,9.21-26.22,26.8-57.11,58.37L257.9,367.05l-4.55,4.65a4,4,0,0,1-3.91,1.09l-58.06-14.87-29.54-7.57h0L137.14,344h0l-57.3-14.69a4.05,4.05,0,0,1-2.91-2.85l-10.3-36.82L43.14,205.74,29.76,157.87a4.06,4.06,0,0,1,1-4L33.63,151l57.9-59.19,37.54-38.36,5.43-5.56L153,29l.23-.22a4,4,0,0,1,3.92-1.1l1.65.43h0l31.65,8.11L203,39.43,326.74,71.14a4,4,0,0,1,2.9,2.85l3.53,12.61,15.32,54.77,21.32,76.22,7,25A4.1,4.1,0,0,1,375.8,246.55Z"/><path class="cls-2" d="M348.49,141.37c-18.81,20.79-82,27.18-98.8-.58C236.28,118.64,252.5,75,279.94,66.46c18.19-5.65,38.49,5,53.23,20.14Z"/><path class="cls-2" d="M158.84,31h0c-2,.24-3.91.54-5.8.9"/><path class="cls-2" d="M257.89,367.06l-4.54,4.64a4.07,4.07,0,0,1-3.92,1.1l-58.05-14.88c2.23-.94,4.18-1.6,5.42-2C220.39,347.94,245.86,358.34,257.89,367.06Z"/><path class="cls-2" d="M375.8,246.55l-9,9.21c-5.27-7.44-8.82-13.23-8.09-20.6.68-6.88,5-14.42,11.12-17.56l7,25A4.09,4.09,0,0,1,375.8,246.55Z"/><path class="cls-2" d="M340.56,282.56l-57.11,58.37c-.9-19.88,13-46.31,35.11-56.53,1.94-.91,16.77-7.62,21.51-2.49A3.69,3.69,0,0,1,340.56,282.56Z"/><path class="cls-2" d="M107.88,114.32C104,135.2,73.18,157,44.61,153.44a57.86,57.86,0,0,1-11-2.44L91.53,91.81c7.87,3.21,14.53,9,16.24,15.62A15.64,15.64,0,0,1,107.88,114.32Z"/><path class="cls-2" d="M156.31,241c10,16.7-19.84,59.47-39.55,55.64-14.53-2.82-30.63-32.35-17.46-52.46C113.11,223.05,148.67,228.15,156.31,241Z"/><path class="cls-2" d="M158.23,165.8c-3.08-12-23.08-20.57-38.42-16.55-6.61,1.73-13.28,9.26-26.34,24.26-19.21,22-18.84,26.7-18,29.06,2.59,7.2,15.19,8.71,19.59,9.25,28.56,3.5,59.36-18.25,63.26-39.13A15.49,15.49,0,0,0,158.23,165.8Z"/><path class="cls-2" d="M220.08,255.85c-.88-20.31,1-25.55,4.8-28.16,8.3-5.78,23.14,2.91,26.45,4.85,20.33,11.9,43.15,43,30.33,64-9.65,15.84-37.06,22.08-51.24,11.82C222.08,302.36,221.41,286.86,220.08,255.85Z"/><path class="cls-2" d="M180,176c-6.52-28.43-10.19-44.46-1.25-52.81,11.65-10.88,36-.61,38,.26,23.11,10.05,46.79,39.78,36.82,67.44-8.24,22.9-37.39,38.43-54.2,30.62C189.36,216.85,186.24,203.23,180,176Z"/><path class="cls-2" d="M337.59,160.27c11.36,5.55,20.64,22.44,17.79,37.65-2.12,11.33-10.32,18.28-13.24,20.69-25.59,21.09-76.68,13-81.93-4.14C253.91,193.83,309.69,146.63,337.59,160.27Z"/><path class="cls-2" d="M211,53.1c17.53-5.92,39.33,6.67,41,19,2.55,19.43-43.71,46-56.69,36C184.79,100.11,186.74,61.29,211,53.1Z"/><path class="cls-2" d="M120.36,78.75c14.93-8,44.34,9.13,45.52,30.62.59,11-6.07,24.24-17.8,28.14-14.57,4.84-30.29-7.06-36-20.28C106.09,103.32,109.69,84.51,120.36,78.75Z"/><path class="cls-2" d="M66.61,289.66,43.14,205.75c15-2.74,30.79,1.75,39,10.89C98.66,235,85.87,273.65,66.61,289.66Z"/><path class="cls-2" d="M160.91,277.78c11-6.87,20.75-12.75,31.86-9.94,14.91,3.78,24.55,21.22,24.83,36.42.37,20.81-16.86,36.23-31.45,42.2-25.63,10.49-60.33-1.17-65-19.45C115.84,305.9,152.42,283.08,160.91,277.78Z"/><path class="cls-2" d="M155.53,194.61c14.11-5.12,40.38,23,35.59,35.17-2.66,6.76-14.85,8.59-22.76,7.45C160,236,148.58,230.32,146,218.61,143.9,209,148.21,197.27,155.53,194.61Z"/><path class="cls-2" d="M325.18,233.92c-.84-.16-16-2.85-24.42,7.86-8,10.23-4.79,26.34,3.73,33.1,13.48,10.69,41.15-1.32,43-16.14C348.81,248.55,338,236.39,325.18,233.92Z"/><path class="cls-2" d="M45.06,166.06c7.54-10.29,25.21-11.14,32.27-2.07,6.15,7.91,2.87,21.59-5.79,28.14-6.13,4.63-16.32,6.72-23.59,1.24C39.6,187.06,39.29,173.92,45.06,166.06Z"/><path class="cls-2" d="M256,319.71c9.29,3,19.1,6.09,20.55,13.41s-5.93,14.6-12.53,17.72c-10.15,4.81-22.72,1.41-30.07-5.74s-11.57-20.36-6-26.35C233.69,312.6,247,316.83,256,319.71Z"/><path class="cls-2" d="M83.54,286.05c6.55-3.15,14.94,1.92,16.55,2.9,8.86,5.36,11.31,14.84,12.82,20.69,1.69,6.5,3,11.54.42,15.3-5,7.34-23.17,7.44-32.28-2.06C70.67,312.05,73.88,290.7,83.54,286.05Z"/><text class="cls-3" transform="matrix(0.7, -0.71, 0.71, 0.7, 14.72, 153.57)">Lukas Melcher</text><path class="cls-2" d="M190.44,36.22c-1,5.83-2.35,12.5-3.86,20.12-3.94,19.94-7,24.58-11.31,26.23-9.43,3.65-21.8-8.3-24.56-11A78.6,78.6,0,0,1,134.5,47.89L153,29l.23-.22a4,4,0,0,1,3.92-1.1l1.65.43h0Z"/></g></g></svg>